<?xml version="1.0" encoding="UTF-8"?>
<svg id="Capa_2" data-name="Capa 2" xmlns="http://www.w3.org/2000/svg" viewBox="0 0 22.14 20.64">
  <defs>
    <style>
      .cls-1 {
        fill: #80c5de;
      }

      .cls-2 {
        fill: #fff;
      }

      .cls-3 {
        fill: #376980;
      }

      .cls-4 {
        fill: #3aa6cc;
      }
    </style>
  </defs>
  <g id="Capa_1-2" data-name="Capa 1">
    <g>
      <g id="_e85984ff" data-name="#e85984ff">
        <path class="cls-1" d="M0,2.35C1.2,1.56,2.41.79,3.61,0c0,5.56,0,11.11,0,16.67-.47.31-.95.62-1.42.93-.61.38-1.21.77-1.8,1.17-.12.08-.24.15-.38.2,0-5.54,0-11.08,0-16.62Z"/>
      </g>
      <path class="cls-4" d="M3.61,0c5.31,0,10.62,0,15.93,0,.55,0,1.09.44,1.13,1.01.02,1-.01,1.99.02,2.99.01,3.81,0,7.62,0,11.43,0,.42.02.83-.01,1.25-1.78.02-3.56,0-5.34,0-3.7,0-7.4,0-11.11,0-.21,0-.42,0-.63-.02,0-5.56,0-11.11,0-16.67"/>
      <g id="_770829ff" data-name="#770829ff">
        <path class="cls-3" d="M20.7,4c.47-.06.95-.03,1.43-.02.02,1.25,0,2.51.01,3.76,0,4,0,8,0,12,0,.3.01.6,0,.89-6.17.01-12.34,0-18.52,0-.37,0-.77-.03-1.05-.29-.21-.2-.38-.48-.37-.78,0-.66,0-1.32,0-1.98.47-.32.95-.62,1.42-.93.21.02.42.02.63.02,3.7,0,7.4,0,11.11,0,1.78,0,3.56.01,5.34,0,.03-.42,0-.83.01-1.25,0-3.81,0-7.62,0-11.43Z"/>
      </g>
      <path class="cls-2" d="M11.38,3.63c.75-.09,1.52-.05,2.23.21.54.19,1.05.53,1.35,1.02.2.31.29.67.29,1.04,0,.33.04.68-.11.99-.28.59-.88.96-1.5,1.12.56.11,1.11.35,1.5.77.3.31.47.74.46,1.17,0,.42.04.85-.09,1.26-.18.58-.61,1.05-1.13,1.36-.73.44-1.59.59-2.43.57-.7-.02-1.42-.14-2.04-.49-.51-.28-.92-.73-1.15-1.26-.13-.3-.21-.61-.24-.94.71,0,1.43,0,2.14,0,.04.31.18.61.43.8.32.25.75.3,1.15.26.35-.03.72-.18.92-.49.18-.28.19-.63.18-.95.01-.3-.1-.61-.33-.81-.28-.24-.66-.33-1.02-.37-.33-.02-.67,0-1-.01,0-.51,0-1.02,0-1.53.43-.01.87.04,1.29-.07.27-.07.54-.23.65-.49.11-.22.08-.48.08-.72,0-.22-.06-.46-.23-.62-.22-.22-.56-.28-.87-.28-.3,0-.62.09-.83.31-.2.19-.29.47-.32.74-.71,0-1.43,0-2.14,0,.02-.65.32-1.27.79-1.72.53-.51,1.24-.78,1.96-.88"/>
    </g>
  </g>
</svg>