<?xml version="1.0" encoding="UTF-8"?>
<svg id="Capa_2" xmlns="http://www.w3.org/2000/svg" viewBox="0 0 21.81 21.81">
  <defs>
    <style>
      .cls-1 {
        fill: #fff;
        fill-rule: evenodd;
      }

      .cls-2 {
        fill: #a62b17;
      }
    </style>
  </defs>
  <g id="Capa_1-2" data-name="Capa_1">
    <g>
      <rect class="cls-2" width="21.81" height="21.81" rx="3.82" ry="3.82"/>
      <path class="cls-1" d="M13.75,12.81c.21.16.42.32.68.47.44.26,1.16.59,1.68.66,1.04.15,1.27-.69.79-1.03-.55-.4-3.01-.2-3.14-.1ZM7.09,14.69c-.12.03-.36.16-.48.22-.44.21-.99.51-1.38.76-.29.19-1.57,1.06-1.06,1.58.6.62,2.04-1.26,2.35-1.71.14-.2.46-.65.57-.86ZM10.09,7.81c.07-.12.2-.71.24-.89.12-.5.31-1.52.26-2.02-.03-.32-.15-.68-.5-.65-.56.06-.53,1.22-.47,1.74.04.33.1.64.19.95.04.14.22.78.28.86ZM9.68,12.92s1.03-.28,1.16-.32c.37-.09.85-.23,1.23-.28-.04-.08-.12-.13-.18-.21l-1.04-1.35c-.06-.09-.1-.17-.16-.24,0,.01,0,0-.02.03l-.1.28c-.04.11-.08.2-.12.31l-.5,1.21c-.05.11-.23.52-.27.57ZM9.99,3.5c-1.85.31-1.07,3.38-.64,4.53l.23.56c.03.08.06.1.03.18-.47,1.32-1.2,3.24-1.84,4.41-.06.11-.12.23-.18.33-.12.21-.06.14-.29.24-1.18.48-3.13,1.41-3.79,2.49-.73,1.17.41,2.23,1.71,1.91,1.17-.29,2.18-1.57,2.8-2.41.37-.5.7-1.05,1.02-1.59.06-.1.17-.1.36-.17.96-.33,2.32-.66,3.32-.85.23-.04.16-.06.36.11.66.55,1.51,1.07,2.35,1.32.55.17,1.2.3,1.83.22.62-.07,1.08-.35,1.24-.86.09-.28.06-.63-.05-.88-.65-1.44-3.67-1.16-4.99-.96-.34.05-.2.08-.5-.21-.21-.21-.3-.33-.49-.54-.17-.2-.42-.52-.58-.74-.22-.31-.42-.61-.63-.94-.09-.15-.18-.25-.14-.35.38-1.13.63-2.18.69-3.47.04-.8-.24-1.79-.95-2.17-.23-.12-.57-.2-.87-.15Z"/>
    </g>
  </g>
</svg>