<?xml version="1.0" encoding="UTF-8"?>
<svg id="Capa_2" xmlns="http://www.w3.org/2000/svg" viewBox="0 0 21.81 21.81">
  <defs>
    <style>
      .cls-1 {
        fill: #cb4d96;
      }

      .cls-2 {
        fill: #280e1f;
      }
    </style>
  </defs>
  <g id="Capa_1-2" data-name="Capa_1">
    <g>
      <rect class="cls-2" y="0" width="21.81" height="21.81" rx="3.82" ry="3.82"/>
      <path class="cls-1" d="M16.13,13.94v-4.3c-.21-.1-.48-.16-.82-.16-.62,0-1.12.2-1.5.61-.38.4-.57.96-.57,1.7,0,.78.19,1.35.57,1.73.38.38.86.57,1.43.57.39,0,.69-.05.89-.16ZM15.04,15.41c-1.1,0-1.98-.3-2.65-.89-.66-.6-.99-1.49-.99-2.65,0-1.05.35-1.91,1.06-2.59.72-.69,1.68-1.03,2.88-1.03.33,0,.6.03.79.09v-3.18c0-.07.03-.1.1-.1h1.62c.06,0,.09.03.09.09v8.55c0,.16.01.48.04.96,0,.07-.02.11-.09.13-.88.43-1.83.64-2.85.64ZM11.11,5.98l-2.72,4.42,2.92,4.71c.06.09.04.14-.06.16h-1.83c-.11,0-.19-.04-.23-.11l-2.08-3.62h-.01l-2.04,3.62c-.04.08-.1.11-.18.11h-1.74s-.05,0-.07-.01c0-.02-.01-.04-.01-.06,0-.03,0-.05.03-.07l2.89-4.59-2.78-4.59s-.02-.05-.01-.07c.02-.03.05-.04.09-.04h1.81c.09,0,.16.03.18.1l1.98,3.57h.01l1.96-3.57c.04-.07.1-.1.18-.1h1.64c.1,0,.13.05.07.16Z"/>
    </g>
  </g>
</svg>