<?xml version="1.0" encoding="UTF-8"?>
<svg id="Capa_2" xmlns="http://www.w3.org/2000/svg" viewBox="0 0 21.81 21.81">
  <defs>
    <style>
      .cls-1 {
        fill: #9495c9;
      }

      .cls-2 {
        fill: #20244c;
      }
    </style>
  </defs>
  <g id="Capa_1-2" data-name="Capa_1">
    <g>
      <rect class="cls-2" width="21.81" height="21.81" rx="3.82" ry="3.82"/>
      <path class="cls-1" d="M6.5,11.4h2.35c-.06-.2-.17-.59-.35-1.16-.18-.58-.35-1.12-.5-1.62-.15-.5-.26-.9-.34-1.19h-.01c-.1.49-.49,1.82-1.15,3.97ZM9.18,12.75h-3.02l-.78,2.5c0,.08-.06.11-.14.11h-1.42c-.09,0-.13-.05-.1-.14l2.74-8.35c.07-.18.1-.44.11-.78,0-.06.03-.09.09-.09h1.99c.06,0,.09.02.1.07l3.06,9.16c.03.09,0,.13-.07.13h-1.59c-.07,0-.11-.03-.14-.09l-.82-2.52Z"/>
      <path class="cls-1" d="M13.89,11.12h1.87c.41,0,.64,0,.69-.03,0-.04.01-.1.01-.2,0-.36-.09-.68-.28-.96s-.5-.43-.92-.43-.74.15-.96.45-.36.69-.41,1.16ZM16.49,12.21h-2.6c0,.61.18,1.08.51,1.43s.83.52,1.49.52c.61,0,1.14-.1,1.62-.31.06-.04.09-.02.09.06v1.04c0,.07-.03.12-.09.17-.54.25-1.2.37-1.99.37-1.16,0-2.02-.33-2.57-.99-.54-.67-.81-1.51-.81-2.51s.28-1.91.85-2.61c.57-.7,1.34-1.05,2.33-1.05s1.63.29,2.08.87c.46.58.69,1.25.69,2.03,0,.39-.02.66-.06.82,0,.07-.05.1-.11.11-.25.04-.73.06-1.45.06Z"/>
    </g>
  </g>
</svg>