<?xml version="1.0" encoding="UTF-8"?>
<svg id="Capa_2" xmlns="http://www.w3.org/2000/svg" viewBox="0 0 21.81 21.81">
  <defs>
    <style>
      .cls-1 {
        fill: #9495c9;
      }

      .cls-2 {
        fill: #20244c;
      }
    </style>
  </defs>
  <g id="Capa_1-2" data-name="Capa_1">
    <g>
      <rect class="cls-2" width="21.81" height="21.81" rx="3.82" ry="3.82"/>
      <path class="cls-1" d="M6.28,11.52h2.35c-.06-.2-.17-.59-.35-1.17-.18-.58-.34-1.12-.5-1.62-.15-.5-.26-.9-.34-1.19h-.01c-.1.49-.49,1.82-1.15,3.98ZM8.95,12.87h-3.02l-.78,2.5c0,.08-.06.11-.14.11h-1.42c-.09,0-.13-.05-.1-.14l2.73-8.37c.07-.18.1-.44.11-.78,0-.06.03-.09.08-.09h1.98c.06,0,.09.02.1.07l3.06,9.18c.03.09,0,.13-.07.13h-1.59c-.07,0-.11-.03-.14-.09l-.82-2.53Z"/>
      <path class="cls-1" d="M12.41,15.37v-5.19c0-.61-.02-1.11-.06-1.51-.02-.08,0-.11.08-.11h1.29c.08,0,.14.03.17.1.02.05.06.23.11.54.57-.51,1.22-.77,1.95-.77.27,0,.53.04.78.13.25.09.48.22.71.41.24.19.42.47.55.85.14.37.21.81.21,1.34v4.21c0,.08-.04.11-.11.11h-1.5c-.08,0-.11-.04-.11-.11v-4.25c0-.42-.09-.74-.28-.98-.18-.24-.45-.36-.82-.36-.49,0-.91.2-1.25.6v4.99c0,.08-.04.11-.11.11h-1.5c-.08,0-.11-.04-.11-.11Z"/>
    </g>
  </g>
</svg>