<?xml version="1.0" encoding="UTF-8"?>
<svg id="Capa_2" xmlns="http://www.w3.org/2000/svg" viewBox="0 0 21.81 21.81">
  <defs>
    <style>
      .cls-1 {
        fill: #ed6b6b;
      }

      .cls-2 {
        fill: #fff;
      }
    </style>
  </defs>
  <g id="Capa_1-2" data-name="Capa_1">
    <g>
      <rect class="cls-2" width="21.81" height="21.81" rx="3.82" ry="3.82"/>
      <path class="cls-1" d="M15.24,11.32c-1.84,0-3.34,1.49-3.34,3.34s1.49,3.34,3.34,3.34,3.34-1.49,3.34-3.34-1.49-3.34-3.34-3.34h0ZM6.57,11.32c-1.84,0-3.34,1.49-3.34,3.34s1.49,3.34,3.34,3.34,3.34-1.49,3.34-3.34-1.49-3.34-3.34-3.34h0ZM14.24,7.15c0,1.84-1.49,3.34-3.34,3.34s-3.34-1.49-3.34-3.34,1.49-3.34,3.34-3.34,3.34,1.49,3.34,3.34h0Z"/>
    </g>
  </g>
</svg>