<?xml version="1.0" encoding="UTF-8"?>
<svg id="Capa_2" xmlns="http://www.w3.org/2000/svg" viewBox="0 0 21.81 21.81">
  <defs>
    <style>
      .cls-1 {
        fill: #9495c9;
      }

      .cls-2 {
        fill: #20244c;
      }
    </style>
  </defs>
  <g id="Capa_1-2" data-name="Capa_1">
    <g>
      <rect class="cls-2" y="0" width="21.81" height="21.81" rx="3.82" ry="3.82"/>
      <path class="cls-1" d="M6.39,11.51h2.35c-.06-.2-.17-.59-.35-1.16-.18-.58-.35-1.12-.5-1.62-.15-.5-.26-.9-.34-1.19h-.01c-.1.49-.49,1.82-1.15,3.97ZM9.07,12.86h-3.02l-.78,2.5c0,.08-.06.11-.14.11h-1.42c-.09,0-.13-.05-.1-.14l2.74-8.35c.07-.18.1-.44.11-.78,0-.06.03-.09.09-.09h1.99c.06,0,.09.02.1.07l3.06,9.16c.03.09,0,.13-.07.13h-1.59c-.07,0-.11-.03-.14-.09l-.82-2.52Z"/>
      <path class="cls-1" d="M18.03,8.66v5.29c0,.44.02.92.07,1.42,0,.04,0,.07-.01.09-.02,0-.05.01-.1.01h-1.32c-.08,0-.12-.03-.14-.09-.04-.1-.07-.26-.09-.45-.48.44-1.11.67-1.87.67-1.52,0-2.28-.86-2.28-2.58v-4.34c0-.08.04-.11.11-.11h1.52c.07,0,.1.04.1.11v4.23c0,.91.37,1.36,1.11,1.36.48,0,.87-.17,1.18-.52v-5.06c0-.08.04-.11.11-.11h1.5c.08,0,.11.03.11.1Z"/>
    </g>
  </g>
</svg>