<?xml version="1.0" encoding="UTF-8"?>
<svg id="Capa_2" data-name="Capa 2" xmlns="http://www.w3.org/2000/svg" viewBox="0 0 22.14 20.64">
  <defs>
    <style>
      .cls-1 {
        fill: #e85a85;
      }

      .cls-2 {
        fill: #fff;
      }

      .cls-3 {
        fill: #77132c;
      }

      .cls-4 {
        fill: #e61551;
      }
    </style>
  </defs>
  <g id="Capa_1-2" data-name="Capa 1">
    <g>
      <g id="_e85984ff" data-name="#e85984ff">
        <path class="cls-1" d="M0,2.35C1.2,1.56,2.41.79,3.61,0c0,5.56,0,11.11,0,16.67-.47.31-.95.62-1.42.93-.61.38-1.21.77-1.8,1.17-.12.08-.24.15-.38.2,0-5.54,0-11.08,0-16.62Z"/>
      </g>
      <g id="_e51050ff" data-name="#e51050ff">
        <path class="cls-4" d="M3.61,0c5.31,0,10.62,0,15.93,0,.55,0,1.09.44,1.13,1.01.02,1-.01,1.99.02,2.99.01,3.81,0,7.62,0,11.43,0,.42.02.83-.01,1.25-1.78.02-3.56,0-5.34,0-3.7,0-7.4,0-11.11,0-.21,0-.42,0-.63-.02,0-5.56,0-11.11,0-16.67M10.91,3.47c-.35,1.02-.63,2.06-.96,3.09-.61,2.01-1.23,4.01-1.84,6.02-.06.16-.1.32-.13.49.58,0,1.16.01,1.74,0,.22-.77.45-1.54.66-2.32.02-.07.05-.13.08-.2,1.1,0,2.2-.01,3.3,0,.26.84.52,1.68.8,2.51.59,0,1.19,0,1.78,0-.35-1.18-.75-2.34-1.12-3.52-.66-2.02-1.3-4.06-1.96-6.08-.78-.02-1.57-.02-2.35,0Z"/>
        <path class="cls-4" d="M12.06,4.71c.11.27.16.56.25.84.34,1.19.69,2.38,1.01,3.58-.82.01-1.65.01-2.48,0,.38-1.48.83-2.95,1.21-4.42Z"/>
      </g>
      <g id="_ffffffff" data-name="#ffffffff">
        <path class="cls-2" d="M10.91,3.47c.78-.01,1.57-.02,2.35,0,.66,2.02,1.3,4.05,1.96,6.08.37,1.18.77,2.34,1.12,3.52-.59.01-1.19,0-1.78,0-.28-.83-.53-1.67-.8-2.51-1.1-.02-2.2,0-3.3,0-.03.07-.05.13-.08.2-.21.77-.44,1.54-.66,2.32-.58.02-1.16.01-1.74,0,.03-.17.08-.33.13-.49.61-2.01,1.23-4.01,1.84-6.02.33-1.03.61-2.07.96-3.09M12.06,4.71c-.39,1.48-.83,2.94-1.21,4.42.83.01,1.65.01,2.48,0-.32-1.2-.68-2.39-1.01-3.58-.09-.28-.14-.57-.25-.84Z"/>
      </g>
      <g id="_770829ff" data-name="#770829ff">
        <path class="cls-3" d="M20.7,4c.47-.06.95-.03,1.43-.02.02,1.25,0,2.51.01,3.76,0,4,0,8,0,12,0,.3.01.6,0,.89-6.17.01-12.34,0-18.52,0-.37,0-.77-.03-1.05-.29-.21-.2-.38-.48-.37-.78,0-.66,0-1.32,0-1.98.47-.32.95-.62,1.42-.93.21.02.42.02.63.02,3.7,0,7.4,0,11.11,0,1.78,0,3.56.01,5.34,0,.03-.42,0-.83.01-1.25,0-3.81,0-7.62,0-11.43Z"/>
      </g>
    </g>
  </g>
</svg>