<?xml version="1.0" encoding="UTF-8"?>
<svg id="Capa_2" data-name="Capa 2" xmlns="http://www.w3.org/2000/svg" viewBox="0 0 102.05 102.1">
  <g id="Capa_1-2" data-name="Capa 1">
    <path d="M51.01,102.1c-18.01,0-34.31-9.18-43.61-24.55-9.52-15.74-9.88-34.82-.97-51.05C15.31,10.33,31.49.43,49.72.01c.41,0,.83-.01,1.23-.01,19.11,0,36.46,10.65,45.29,27.79,8.92,17.33,7.5,37.13-3.8,52.97-9.68,13.56-24.78,21.34-41.43,21.34ZM17.56,79.86c7.77,8.88,18.53,14.37,29.75,15.18,5.38-7.01,9.85-15.61,14.06-27.01.34-.92.63-1.9.91-2.84.29-.98.59-2,.95-2.97,2.48-6.69,6.67-12.23,11.86-15.71l-3.52-6.27-54.01,39.63ZM78.29,52.88c-1.16.93-3.23,3.02-3.72,3.61-2.82,3.39-4.15,7.24-5.55,11.31-.44,1.28-.9,2.6-1.41,3.92-2.25,5.84-4.82,11.42-7.64,16.58l-4.08,6.71c10.41-1.11,20.24-6.02,27.26-13.66.6-8.6-1-17.92-4.88-28.47ZM8.25,41.04c-2.4,9.27-1.25,20.18,3.12,29.29.37.76.79,1.49,1.24,2.26.27.47.55.96.82,1.45l54.26-39.42c-.15-.18-.31-.37-.48-.58-1-1.23-3.18-3.9-4.15-4.79-3.53,2.37-6.59,3.91-9.6,4.84-4.51,1.4-9.18,1.49-13.7,1.57-2.02.04-4.11.08-6.14.24-9.14.71-17.68,2.43-25.38,5.13ZM84.1,49.33c.3.85.61,1.7.92,2.52.51,1.38,1.04,2.8,1.49,4.25,1.66,5.42,2.69,10.8,3.07,16.04,4.01-7.15,5.95-16.27,5.23-24.7-.29,0-.57-.01-.86-.01-3.57,0-6.88.64-9.85,1.9ZM81.36,43.29c3.57-1.66,7.76-2.53,12.21-2.53.06,0,.12,0,.19,0-.88-4.01-2.54-8.1-5.14-12.68l-11.27,8.06,4.02,7.14ZM33.25,10.75c-7.95,3.52-14.66,9.27-19.43,16.64-.53.82-2.12,3.61-3.01,5.42,7.35-2.08,15.04-3.4,22.87-3.94,1.91-.13,3.85-.15,5.73-.17,2.87-.03,5.83-.06,8.65-.49,3.09-.47,6.27-1.73,9.68-3.82-1.87-1.59-6.9-5.17-7.71-5.69-5.36-3.46-11.15-6.2-16.79-7.94ZM73.24,30.54l11.19-8.21c-3.55-3.94-6.85-6.73-10.28-8.67-.19.51-.42,1.14-.56,1.57-.2.56-.37,1.04-.45,1.23-1.39,3.18-3.38,5.93-5.07,8.07l5.18,6.02ZM45.09,8.01c.95.41,1.94.84,2.87,1.32,5.05,2.64,10,6.05,15.11,10.4,1.58-2.03,2.85-4.14,3.79-6.3.44-1.02.97-2.37,1.18-3.04-.63-.31-1.84-.75-3.62-1.3-4.41-1.38-9.21-2.09-14.26-2.09-.4,0-.8,0-1.21.01l-4.75.62c.29.13.58.25.88.38Z"/>
  </g>
</svg>