<?xml version="1.0" encoding="UTF-8"?>
<svg id="Capa_2" xmlns="http://www.w3.org/2000/svg" viewBox="0 0 21.81 21.81">
  <defs>
    <style>
      .cls-1 {
        fill: #fff;
      }

      .cls-2 {
        fill: #090f1b;
      }
    </style>
  </defs>
  <g id="Capa_1-2" data-name="Capa_1">
    <g>
      <rect class="cls-2" width="21.81" height="21.81" rx="3.82" ry="3.82"/>
      <path class="cls-1" d="M6.67,7.44v2.6h1.17c.59,0,1.01-.12,1.28-.35s.4-.55.4-.94c0-.89-.58-1.33-1.73-1.33-.53,0-.9,0-1.11.03ZM6.67,11.36v3.01c.21.02.57.03,1.09.03,1.44,0,2.16-.52,2.16-1.55,0-.46-.17-.83-.5-1.09-.33-.27-.83-.4-1.51-.4h-1.25ZM4.91,15.55V6.28c0-.09.03-.13.09-.14.78-.02,1.73-.03,2.86-.03.68,0,1.26.08,1.73.23.48.15.84.35,1.07.61s.39.52.48.78c.09.26.14.53.14.84,0,.52-.14.95-.43,1.29-.27.33-.62.57-1.04.71v.03c.54.13,1,.38,1.39.74.39.36.58.87.58,1.52,0,.93-.36,1.64-1.08,2.13-.72.48-1.73.72-3.03.72-1.08,0-1.97,0-2.67-.03-.07,0-.1-.05-.1-.13Z"/>
      <path class="cls-1" d="M12.81,8.76h1.41c.08,0,.13.04.16.13.07.18.12.46.16.84.56-.73,1.32-1.09,2.28-1.09.07,0,.1.03.1.1v1.46c0,.08-.04.11-.11.11-.86-.06-1.55.17-2.06.68-.09.09-.13.2-.13.34v4.23c0,.08-.04.11-.11.11h-1.56c-.09,0-.13-.04-.13-.11v-4.78c0-.74-.02-1.38-.07-1.92,0-.07.02-.1.09-.1Z"/>
    </g>
  </g>
</svg>