<?xml version="1.0" encoding="UTF-8"?>
<svg id="Capa_2" xmlns="http://www.w3.org/2000/svg" viewBox="0 0 21.81 21.81">
  <defs>
    <style>
      .cls-1 {
        fill: #fff;
        fill-rule: evenodd;
      }

      .cls-2 {
        fill: #5cb353;
      }
    </style>
  </defs>
  <g id="Capa_1-2" data-name="Capa_1">
    <path class="cls-2" d="M10.91,0C4.88,0,0,4.88,0,10.91s4.88,10.91,10.91,10.91,10.91-4.88,10.91-10.91S16.93,0,10.91,0h0Z"/>
  </g>
  <g id="Layer_1">
    <g>
      <path class="cls-1" d="M15.55,6.11c-1.23-1.23-2.87-1.91-4.62-1.91-3.6,0-6.53,2.93-6.53,6.53,0,1.15.3,2.27.87,3.26l-.93,3.38,3.46-.91c.96.52,2.03.79,3.12.79h0c3.6,0,6.53-2.93,6.53-6.53,0-1.74-.68-3.38-1.91-4.62h0ZM10.93,16.15h0c-.97,0-1.93-.26-2.76-.76l-.2-.12-2.05.54.55-2-.13-.21c-.54-.86-.83-1.87-.83-2.89,0-2.99,2.44-5.42,5.43-5.42,1.45,0,2.81.57,3.84,1.59s1.59,2.39,1.59,3.84c0,2.99-2.44,5.42-5.43,5.42h0Z"/>
      <path class="cls-1" d="M8.75,13.89s.14.03.36.03c.92,0,1.71,0,2.28,0,2.63,0,2.56-2.77,1.33-3.12.18-.32,1-.92.49-2.16-.5-1.23-2.66-.95-4.14-.95-.55,0-.47.4-.46,1.03,0,1,0,3.69,0,4.85,0,.24.07.27.14.32ZM9.88,12.87c.25,0,.84,0,1.34,0,.57,0,1.08-.27,1.06-.83,0-.53-.36-.71-.86-.76-.47,0-1.01,0-1.54,0v1.59ZM9.88,10.21c.99-.01,1.37.04,1.91-.1.37-.21.53-.99,0-1.26-.37-.18-1.46-.12-1.92-.1v1.46Z"/>
    </g>
  </g>
</svg>