<?xml version="1.0" encoding="UTF-8"?>
<svg id="Capa_2" data-name="Capa 2" xmlns="http://www.w3.org/2000/svg" viewBox="0 0 102.01 97.58">
  <g id="Capa_1-2" data-name="Capa 1">
    <path d="M43,97.58c-1.83,0-3.73-.9-5.8-2.76-2.21-1.98-4.83-5.1-2.7-9.71l-9.23-9.06c-1.19.52-2.32.78-3.43.78-2.53,0-4.75-1.28-7.19-4.15-1.57-1.85-2.26-3.63-2.1-5.43.27-2.97,2.76-5.24,5.75-7.7,2.91-2.4,7.29-5.25,11.67-5.25.69,0,1.37.07,2.01.21.33.07.69.22,1.03.36.19.08.48.2.68.26l11.77-9.86.31-.37-8.31-8.18c-1.32.24-2.75.45-4.31.45-.08,0-.16,0-.24,0-.8.68-3.01,3.92-3.38,4.96.08.18.21.46.32.68.31.63.63,1.28.73,1.76.55,2.55.03,4.98-1.47,6.84-1.49,1.85-3.86,2.96-6.32,2.96-2.07,0-4.06-.74-5.76-2.15-3.1-2.57-6.36-5.95-9.5-9.22-1.08-1.13-2.14-2.23-3.15-3.25-.31-.31-.62-.59-.93-.86-.7-.62-1.43-1.26-2.08-2.28-1.64-2.56-1.8-5.47-.42-7.99,1.45-2.65,4.31-4.29,7.47-4.29.48,0,.97.04,1.46.11.6.09,1.21.39,1.79.68.31.15.77.38.93.4.69-.14,4.38-2.39,5.2-3.28-.44-7.89,5.86-15.18,13.94-16.01.17-.02.35-.02.54-.02.25,0,.51.01.76.03.23.01.45.02.67.02s.37-.01.5-.04c.32-.18,1.31-.96,1.98-1.49.89-.7,1.73-1.36,2.2-1.65,3.44-2.05,7.1-3.09,10.86-3.09,3.95,0,7.99,1.14,12,3.39.06.03,5.52,3.12,5.97,5.12.22.96,0,1.97-.6,2.72-.56.71-1.4,1.11-2.31,1.11-.53-.01-.9-.16-1.19-.27-.13-.05-.29-.11-.36-.12-.29-.03-.59-.04-.88-.04-4.67,0-9.18,3.36-12.86,6.22.43,2.56.4,4.91-.09,7.31l9.22,9.05c.36-.26.86-.68,1.06-.86.12-.1.22-.19.29-.25,4.73-3.86,9.44-7.93,13.99-11.87,3.96-3.43,8.06-6.97,12.17-10.37,1.03-.77,1.82-1.09,2.61-1.09,1.03,0,1.91.57,2.71,1.74l11.06,17.99v1.94l-.15.24c-.34.54-1.6,1.83-2.7,1.83h-4.37v4.37c0,1.07-1.59,2.66-2.66,2.66h-4.56v4.37c0,.89-1.5,2.66-2.46,2.66h-4.76v4.37c0,.95-.73,1.76-1.61,2.25l11.46,11.28c2.24,2.56,2.76,5.79,1.44,8.69-1.32,2.91-4.14,4.71-7.36,4.71-.66,0-1.33-.08-2-.23-2.04-.46-3.27-1.58-4.58-2.76l-.29-.26c-2.15-1.93-4.23-4.08-6.25-6.15-1.7-1.75-3.45-3.55-5.25-5.23v1.55c0,1.23-1.5,3.05-2.85,3.05h-4.37v3.98c0,1.26-1.16,2.38-2.17,3.37-.19.19-.39.38-.56.55,1.79,4.53.03,9.77-5.24,15.59-2.37,2.62-4.74,4.97-7.71,4.97ZM25.62,69.16c.42,0,.85.1,1.26.31l.14.07,13.46,12.91c1.82,1.9.68,3.58,0,4.58-.5.73-.79,1.2-.66,1.67.19.43,1.83,2.11,2.41,2.5.3.2.53.33.7.33.06,0,.12-.01.19-.03.75-.28,3.75-3.53,4.84-5.03,2.17-2.99,3.03-5.55,2.39-7.06l-18.76-18.46c-.52-.44-1.21-.54-1.7-.54h-.14c-1.79.07-4.02,1.08-6.62,3-1.42,1.05-4.19,3.56-4.61,4.34.22.82,2.44,2.92,3.13,3.08.05,0,.11.01.17.01.48,0,.93-.32,1.45-.69.64-.45,1.37-.97,2.33-.97ZM82.92,72.7c.43.29.87.44,1.33.44h0c.79,0,1.55-.47,1.88-1.18.32-.69.18-1.46-.4-2.18l-12.62-12.18v1.65c0,1.05-.77,1.85-1.68,2.36l11.48,11.1ZM51.94,72.38l.66-.59c.08-.79.02-1.78-.04-2.74-.08-1.3-.16-2.64.08-3.74.2-.86,1.49-2.28,2.59-2.28h4.56v-4.56c0-.81,1.66-2.46,2.46-2.46h4.76v-4.56c0-.71,1.37-2.46,2.27-2.46h4.95v-4.37c0-1.38,1.79-2.85,3.05-2.85h4.17v-4.17c0-1.25,1.6-2.85,2.85-2.85h4.37v-4.17c0-1.06,1.51-2.85,2.66-2.85h2.19l-6.31-9.98-48.88,41.46,13.59,13.2ZM21.13,47.79c.47.4,1,.61,1.55.61.79,0,1.55-.46,1.88-1.13.32-.66.2-1.42-.37-2.15-1.9-2.47-4.61-4.87-7.24-7.19-2.48-2.19-5.04-4.46-7.02-6.85-.65-.51-1.14-.79-1.74-.79-.12,0-.24.01-.37.03-.72.12-1.28.54-1.52,1.17-.27.67-.14,1.45.35,2.07,1.96,2.55,4.77,5.03,7.48,7.43,2.47,2.18,5.02,4.44,7.01,6.8ZM50.42,41.02l3.03-2.45-7.38-7.45c-.12.2-.23.37-.33.48-.78.9-1.67,1.65-2.55,2.35l7.23,7.07ZM25.19,37.4c.4-.7.86-1.41,1.35-2.06,1.13-1.5,3.25-4.07,4.74-4.29.74-.11,1.39-.13,1.92-.13h.99c.81,0,1.71-.03,2.89-.46,4.16-1.53,6.62-5.6,6.11-10.11-.04-.34-.17-.75-.31-1.19-.28-.86-.59-1.83-.33-2.82.28-1.05,1.67-2.25,3.98-3.96l.33-.24c2.07-1.56,5.03-3.62,8.44-4.93,0,0-.02,0-.03,0-2-.75-3.99-1.13-5.92-1.13-3.28,0-6.45,1.1-9.43,3.27-.25.18-.69.58-1.12.97-1.3,1.19-1.98,1.76-2.57,1.9-.42.1-.9.15-1.5.15-.36,0-.73-.02-1.1-.03-.34-.02-.69-.03-1.02-.03s-.61.02-.84.05c-4.2.61-7.79,4.52-8.02,8.73-.02.34.03.68.09,1.05.07.45.14.95.09,1.51-.16,1.62-2.27,3.35-4.53,4.97-.68.49-1.38.92-2.06,1.34l7.84,7.46Z"/>
  </g>
</svg>