<?xml version="1.0" encoding="UTF-8"?>
<svg id="Capa_2" xmlns="http://www.w3.org/2000/svg" viewBox="0 0 21.81 21.81">
  <defs>
    <style>
      .cls-1 {
        fill: #9495c9;
      }

      .cls-2 {
        fill: #20244c;
      }
    </style>
  </defs>
  <g id="Capa_1-2" data-name="Capa_1">
    <g>
      <rect class="cls-2" width="21.81" height="21.81" rx="3.82" ry="3.82"/>
      <path class="cls-1" d="M10.87,14.35v1.18c0,.09-.03.16-.1.18-.51.22-1.22.33-2.12.33-.68,0-1.31-.09-1.9-.28-.58-.2-1.1-.49-1.56-.86-.46-.39-.83-.9-1.09-1.54-.26-.64-.4-1.38-.4-2.21,0-1.45.46-2.61,1.39-3.49.93-.89,2.15-1.33,3.67-1.33.99,0,1.69.11,2.11.33.06.02.08.07.08.16v1.29c0,.09-.04.12-.11.09-.51-.3-1.18-.45-2.03-.45-1,0-1.8.3-2.39.89-.59.59-.88,1.41-.88,2.47,0,.65.1,1.22.31,1.7.21.47.48.84.82,1.09.35.25.71.43,1.08.54s.76.17,1.16.17c.67,0,1.29-.1,1.86-.3.07-.03.1,0,.1.07Z"/>
      <path class="cls-1" d="M11.99,15.78V5.77c0-.07.03-.1.1-.1h1.6c.07,0,.1.03.1.1v3.67c.53-.39,1.15-.58,1.87-.58s1.27.23,1.74.68c.47.44.71,1.18.71,2.2v4.04c0,.08-.04.11-.11.11h-1.56c-.08,0-.13-.04-.13-.11v-4.08c0-.46-.1-.82-.31-1.08-.2-.26-.5-.38-.89-.38-.49,0-.93.17-1.32.51v5.05c0,.07-.04.1-.11.1h-1.57c-.08,0-.11-.04-.11-.11Z"/>
    </g>
  </g>
</svg>