<?xml version="1.0" encoding="UTF-8"?>
<svg id="Capa_2" data-name="Capa 2" xmlns="http://www.w3.org/2000/svg" viewBox="0 0 70.9 27.3">
  <defs>
    <style>
      .cls-1 {
        fill: #f8c823;
      }

      .cls-2 {
        fill: #fff;
      }

      .cls-3 {
        fill: #0a7dcf;
      }
    </style>
  </defs>
  <g id="Capa_1-2" data-name="Capa 1">
    <polygon class="cls-3" points="70.9 .28 65.84 .26 65.84 .26 9.69 0 0 27.04 56.15 27.3 60.08 16.32 65.14 16.34 70.9 .28"/>
    <path class="cls-2" d="M16.71,11.68l-6.15-2.8c-.32-.14-.47-.39-.47-.77v-.19c0-.38.16-.63.47-.77l6.15-2.79c.22-.1.41-.11.54-.02.14.09.21.26.21.5v.36c0,.37-.17.62-.51.75l-4.81,2.04v.03l4.81,2.04c.34.14.51.39.51.75v.36c0,.25-.07.42-.21.51-.14.09-.32.09-.54,0Z"/>
    <path class="cls-1" d="M19.19,8.5c0-1.18.39-2.17,1.16-2.96.79-.81,1.81-1.22,3.08-1.22.96,0,1.81.27,2.56.8.32.22.36.52.12.89l-.2.31c-.2.3-.49.36-.86.17-.47-.32-.97-.49-1.52-.49-.7,0-1.28.24-1.72.72-.44.46-.66,1.04-.66,1.75s.22,1.29.67,1.79c.44.48,1.03.72,1.76.72.6,0,1.19-.2,1.75-.61.39-.22.68-.15.87.2l.15.3c.2.37.15.66-.17.88-.82.62-1.74.92-2.77.92-1.28,0-2.3-.4-3.08-1.19-.78-.79-1.16-1.79-1.16-2.99Z"/>
    <path class="cls-1" d="M35.82,8.5c0,1.21-.42,2.21-1.26,3.01-.83.78-1.84,1.17-3.05,1.17s-2.22-.39-3.05-1.17c-.83-.8-1.24-1.81-1.24-3.01s.41-2.21,1.24-2.99c.82-.79,1.83-1.19,3.05-1.19s2.23.4,3.05,1.19c.84.79,1.26,1.79,1.26,2.99ZM29.2,8.5c0,.74.22,1.34.66,1.8.45.46,1,.69,1.65.69s1.2-.23,1.65-.69c.45-.48.67-1.08.67-1.8s-.23-1.32-.69-1.79c-.44-.47-.99-.7-1.64-.7s-1.19.23-1.64.7c-.45.48-.67,1.08-.67,1.79Z"/>
    <path class="cls-1" d="M36.78,8.5c0-1.25.33-2.26.98-3.02.66-.77,1.52-1.16,2.56-1.16.59,0,1.08.12,1.47.34s.63.46.74.69l.08.11h.03c-.02-.19-.03-.34-.03-.45v-2.98c0-.44.21-.66.63-.66h.67c.42,0,.63.22.63.66v9.81c0,.44-.21.66-.63.66h-.57c-.42,0-.63-.2-.63-.6v-.31l.03-.28h-.03c-.1.18-.22.34-.35.49-.49.6-1.19.89-2.1.89-1.05,0-1.9-.39-2.53-1.16s-.95-1.78-.95-3.02ZM38.74,8.5c0,.75.18,1.36.54,1.82.36.46.83.69,1.41.69s1.04-.22,1.41-.66.55-1.06.55-1.86c0-.67-.17-1.24-.51-1.72-.34-.49-.82-.74-1.44-.74-.56,0-1.03.23-1.4.68s-.56,1.05-.56,1.79Z"/>
    <path class="cls-1" d="M54.59,8.5c0,1.21-.42,2.21-1.26,3.01-.83.78-1.84,1.17-3.05,1.17s-2.22-.39-3.05-1.17c-.83-.8-1.24-1.81-1.24-3.01s.41-2.21,1.24-2.99c.82-.79,1.83-1.19,3.05-1.19s2.23.4,3.05,1.19c.84.79,1.26,1.79,1.26,2.99ZM47.97,8.5c0,.74.22,1.34.66,1.8.45.46,1,.69,1.65.69s1.2-.23,1.65-.69c.45-.48.67-1.08.67-1.8s-.23-1.32-.69-1.79c-.44-.47-.99-.7-1.64-.7s-1.19.23-1.64.7c-.45.48-.67,1.08-.67,1.79Z"/>
    <path class="cls-2" d="M55.41,10.29c0-.54.15-1,.44-1.39.29-.38.69-.67,1.2-.85.9-.32,1.87-.49,2.93-.49h.32v-.19c0-.94-.49-1.41-1.46-1.41-.52,0-1.06.15-1.62.45-.41.18-.7.09-.86-.27l-.15-.3c-.19-.38-.11-.67.25-.88.84-.44,1.69-.66,2.56-.66,1.01,0,1.8.28,2.37.84.57.56.86,1.34.86,2.34v4.34c0,.44-.21.66-.64.66h-.52c-.42,0-.63-.22-.63-.66v-.31l.03-.34h-.03c-.11.19-.24.37-.37.53-.56.65-1.26.97-2.08.97-.73,0-1.34-.22-1.84-.66-.5-.45-.75-1.03-.75-1.74ZM57.34,10.12c0,.29.11.54.32.74.21.2.5.31.86.31.52,0,.95-.22,1.29-.66.34-.44.51-.92.51-1.44v-.3h-.32c-1.77,0-2.65.45-2.65,1.35Z"/>
    <path class="cls-1" d="M5.11,21.16c0-1.18.39-2.17,1.16-2.96.79-.81,1.81-1.22,3.08-1.22.96,0,1.81.27,2.56.8.32.22.36.52.12.89l-.2.31c-.2.3-.49.36-.86.17-.47-.32-.97-.49-1.52-.49-.7,0-1.28.24-1.72.72-.44.46-.66,1.04-.66,1.75s.22,1.29.67,1.79c.44.48,1.03.72,1.76.72.6,0,1.19-.2,1.75-.61.39-.22.68-.15.87.2l.15.3c.2.37.15.66-.17.88-.82.62-1.74.92-2.77.92-1.28,0-2.3-.4-3.08-1.19-.78-.79-1.16-1.79-1.16-2.99Z"/>
    <path class="cls-1" d="M21.73,21.16c0,1.21-.42,2.21-1.26,3.01-.83.78-1.84,1.17-3.05,1.17s-2.22-.39-3.05-1.17c-.83-.8-1.24-1.81-1.24-3.01s.41-2.21,1.24-2.99c.82-.79,1.83-1.19,3.05-1.19s2.23.4,3.05,1.19c.84.79,1.26,1.79,1.26,2.99ZM15.11,21.16c0,.74.22,1.34.66,1.8.45.46,1,.69,1.65.69s1.2-.23,1.65-.69c.45-.48.67-1.08.67-1.8s-.23-1.32-.69-1.79c-.44-.47-.99-.7-1.64-.7s-1.19.23-1.64.7c-.45.48-.67,1.08-.67,1.79Z"/>
    <path class="cls-1" d="M22.7,21.16c0-1.25.33-2.26.98-3.02.66-.77,1.52-1.16,2.56-1.16.59,0,1.08.12,1.47.34s.63.46.74.69l.08.11h.03c-.02-.19-.03-.34-.03-.45v-2.98c0-.44.21-.66.63-.66h.67c.42,0,.63.22.63.66v9.81c0,.44-.21.66-.63.66h-.57c-.42,0-.63-.2-.63-.6v-.31l.03-.28h-.03c-.1.18-.22.34-.35.49-.49.6-1.19.89-2.1.89-1.05,0-1.9-.39-2.53-1.16s-.95-1.78-.95-3.02ZM24.66,21.16c0,.75.18,1.36.54,1.82.36.46.83.69,1.41.69s1.04-.22,1.41-.66.55-1.06.55-1.86c0-.67-.17-1.24-.51-1.72-.34-.49-.82-.74-1.44-.74-.56,0-1.03.23-1.4.68s-.56,1.05-.56,1.79Z"/>
    <path class="cls-1" d="M40.5,21.16c0,1.21-.42,2.21-1.26,3.01-.83.78-1.84,1.17-3.05,1.17s-2.22-.39-3.05-1.17c-.83-.8-1.24-1.81-1.24-3.01s.41-2.21,1.24-2.99c.82-.79,1.83-1.19,3.05-1.19s2.23.4,3.05,1.19c.84.79,1.26,1.79,1.26,2.99ZM33.89,21.16c0,.74.22,1.34.66,1.8.45.46,1,.69,1.65.69s1.2-.23,1.65-.69c.45-.48.67-1.08.67-1.8s-.23-1.32-.69-1.79c-.44-.47-.99-.7-1.64-.7s-1.19.23-1.64.7c-.45.48-.67,1.08-.67,1.79Z"/>
    <path class="cls-2" d="M40.43,25.84l6.37-11.93c.22-.38.54-.57.97-.57h.39c.27,0,.45.08.54.22.09.14.06.34-.07.58l-6.37,11.93c-.19.38-.51.57-.95.57h-.41c-.27,0-.45-.08-.54-.22-.09-.14-.06-.34.07-.58Z"/>
    <path class="cls-2" d="M49.62,22.85v-.36c0-.35.16-.61.49-.75l4.81-2.04v-.03l-4.81-2.04c-.33-.15-.49-.4-.49-.75v-.36c0-.24.07-.41.2-.5.13-.09.31-.09.54.02l6.15,2.79c.33.16.49.41.49.77v.19c0,.37-.16.62-.49.77l-6.15,2.79c-.22.1-.4.11-.54.02-.13-.09-.2-.26-.2-.5Z"/>
  </g>
</svg>