<?xml version="1.0" encoding="UTF-8"?>
<svg id="Capa_2" xmlns="http://www.w3.org/2000/svg" viewBox="0 0 15.79 21.81">
  <defs>
    <style>
      .cls-1 {
        fill: #7ab92c;
      }
    </style>
  </defs>
  <g id="Capa_1-2" data-name="Capa_1">
    <path class="cls-1" d="M7.85,18.77h-.32c-1.29-4.27-2.04-7.95-2.2-10.9-.24-4.25.63-6.97,2.02-7.73.13-.07.27-.12.5-.13.23,0,.38.06.5.13,1.39.75,2.26,3.47,2.02,7.73-.17,2.94-.92,6.62-2.2,10.89h-.32ZM6.67,0s-3.78,1.43-3.51,6.94c.27,5.51,4.04,11.82,4.04,11.82C4.88,16.71,1.45,10.31,1.38,6.54c.05-3.98,2.67-5.59,3.41-5.94.74-.35,1.53-.58,1.88-.6ZM3.37.97S-.7,2.64.11,7.48c.8,4.83,5.08,9.99,6.35,11.09.46.42-5.25-5.95-5.8-11.54C.39,4.91,1.01,2.57,3.37.97ZM12.43.97s4.06,1.67,3.26,6.51c-.8,4.83-5.08,9.99-6.35,11.09-.46.42,5.25-5.95,5.8-11.54.26-2.11-.35-4.45-2.71-6.05ZM9.1,0s3.78,1.43,3.51,6.94c-.27,5.51-4.04,11.82-4.04,11.82,2.32-2.06,5.75-8.46,5.81-12.23-.05-3.98-2.67-5.59-3.41-5.94-.74-.35-1.53-.58-1.88-.6h0ZM9.47,19.85h-3.24l.44,1.96h2.37l.44-1.96Z"/>
  </g>
</svg>