<?xml version="1.0" encoding="UTF-8"?>
<svg id="Capa_2" data-name="Capa 2" xmlns="http://www.w3.org/2000/svg" viewBox="0 0 187.84 33.37">
  <defs>
    <style>
      .cls-1 {
        fill: #74aac6;
      }

      .cls-2 {
        fill: #1d1d1b;
      }

      .cls-3 {
        fill: #295a6e;
      }

      .cls-4 {
        fill: #2d76a1;
      }
    </style>
  </defs>
  <g id="Capa_1-2" data-name="Capa 1">
    <g>
      <path class="cls-2" d="M48.15,18.7c-1.08,1.08-2.48,1.59-3.88,1.59-3,0-5.48-2.07-5.48-5.43s2.39-5.43,5.48-5.43c1.4,0,2.8.54,3.88,1.6l-.69.67c-.86-.86-2.05-1.27-3.19-1.27-2.42,0-4.44,1.57-4.44,4.44s2.03,4.44,4.44,4.44c1.14,0,2.31-.45,3.17-1.32l.71.71Z"/>
      <path class="cls-2" d="M58.89,20.19v-1.92c-.82,1.47-2.31,2.07-3.79,2.09-2.85,0-4.81-1.75-4.81-4.7v-6.15h1.06v6.12c0,2.41,1.49,3.71,3.79,3.69,2.2-.02,3.73-1.68,3.73-3.88v-5.93h1.06v10.67h-1.03Z"/>
      <path class="cls-2" d="M63.7,9.54l.04,1.9c.67-1.44,2.18-2,3.54-2,.8-.02,1.57.19,2.29.62l-.47.86c-.56-.34-1.19-.5-1.81-.5-1.98.02-3.51,1.62-3.51,3.56v6.21h-1.06v-10.65h.99Z"/>
      <path class="cls-2" d="M78.48,11.48c-1.08-.95-2.13-1.12-3.32-1.12-1.66-.02-3.26.6-3.21,1.96.04,1.42,1.9,1.7,3.23,1.94,1.9.32,4.51.65,4.4,3.13-.06,2.35-2.5,2.98-4.38,2.98s-3.73-.71-4.66-2.13l.78-.69c.88,1.27,2.48,1.81,3.9,1.81,1.29,0,3.26-.34,3.32-2.03.04-1.53-1.72-1.83-3.47-2.11-2.07-.34-4.12-.73-4.14-2.87-.02-2.09,2.07-3,4.23-2.98,1.55,0,2.91.43,3.97,1.42l-.65.69Z"/>
      <path class="cls-2" d="M81.43,14.88c0-3.38,2.42-5.54,5.41-5.54s5.41,2.16,5.41,5.54-2.41,5.46-5.41,5.46-5.41-2.07-5.41-5.46ZM91.22,14.88c0-2.76-1.96-4.55-4.38-4.55s-4.38,1.79-4.38,4.55,1.96,4.42,4.38,4.42,4.38-1.66,4.38-4.42Z"/>
      <path class="cls-2" d="M102.01,11.48c-1.08-.95-2.13-1.12-3.32-1.12-1.66-.02-3.26.6-3.21,1.96.04,1.42,1.9,1.7,3.23,1.94,1.9.32,4.51.65,4.4,3.13-.06,2.35-2.5,2.98-4.38,2.98s-3.73-.71-4.66-2.13l.78-.69c.88,1.27,2.48,1.81,3.9,1.81,1.29,0,3.26-.34,3.32-2.03.04-1.53-1.72-1.83-3.47-2.11-2.07-.34-4.12-.73-4.14-2.87-.02-2.09,2.07-3,4.23-2.98,1.55,0,2.91.43,3.97,1.42l-.65.69Z"/>
      <path class="cls-2" d="M115.7,9.54v10.65h-1.06v-2.26c-1.03,1.66-2.63,2.44-4.35,2.44-2.98,0-5.41-2.24-5.41-5.5s2.44-5.46,5.41-5.46c1.72,0,3.47.8,4.35,2.46v-2.33h1.06ZM105.93,14.86c0,2.67,1.94,4.46,4.36,4.46,5.93,0,5.93-8.9,0-8.9-2.42,0-4.36,1.77-4.36,4.44Z"/>
      <path class="cls-2" d="M120.56,6.32v3.21h3.62v.88h-3.62v6.49c0,1.44.3,2.46,1.96,2.46.52,0,1.1-.17,1.64-.43l.37.86c-.67.32-1.34.54-2.01.54-2.26,0-3-1.34-3-3.43v-6.49h-2.26v-.88h2.26v-3.1l1.03-.11Z"/>
      <path class="cls-2" d="M133.93,11.48c-1.08-.95-2.13-1.12-3.32-1.12-1.66-.02-3.26.6-3.21,1.96.04,1.42,1.9,1.7,3.23,1.94,1.9.32,4.51.65,4.4,3.13-.06,2.35-2.5,2.98-4.38,2.98s-3.73-.71-4.66-2.13l.78-.69c.88,1.27,2.48,1.81,3.9,1.81,1.29,0,3.26-.34,3.32-2.03.04-1.53-1.72-1.83-3.47-2.11-2.07-.34-4.12-.73-4.14-2.87-.02-2.09,2.07-3,4.23-2.98,1.55,0,2.91.43,3.97,1.42l-.65.69Z"/>
      <path class="cls-2" d="M147.62,9.54v10.65h-1.06v-2.26c-1.03,1.66-2.63,2.44-4.35,2.44-2.98,0-5.41-2.24-5.41-5.5s2.44-5.46,5.41-5.46c1.72,0,3.47.8,4.35,2.46v-2.33h1.06ZM137.85,14.86c0,2.67,1.94,4.46,4.36,4.46,5.93,0,5.93-8.9,0-8.9-2.42,0-4.36,1.77-4.36,4.44Z"/>
      <path class="cls-2" d="M151.89,6.06c0,1.12-1.7,1.12-1.7,0s1.7-1.12,1.7,0ZM150.49,9.49v10.69h1.06v-10.69h-1.06Z"/>
      <path class="cls-2" d="M164.79,5.09v15.09h-1.04v-2.35c-.88,1.62-2.63,2.52-4.44,2.52-2.98,0-5.33-1.96-5.33-5.5s2.37-5.5,5.35-5.5c1.83,0,3.56.78,4.42,2.5v-6.77h1.04ZM155.02,14.86c0,2.95,1.96,4.46,4.35,4.46s4.36-1.83,4.36-4.48-1.9-4.46-4.36-4.46-4.35,1.49-4.35,4.49Z"/>
      <path class="cls-2" d="M169.13,19.54c0,1.12-1.7,1.12-1.7,0s1.7-1.12,1.7,0Z"/>
      <path class="cls-2" d="M172.71,6.32v3.21h3.62v.88h-3.62v6.49c0,1.44.3,2.46,1.96,2.46.52,0,1.1-.17,1.64-.43l.37.86c-.67.32-1.34.54-2.01.54-2.26,0-3-1.34-3-3.43v-6.49h-2.26v-.88h2.26v-3.1l1.03-.11Z"/>
      <path class="cls-2" d="M177.75,9.54h1.16l3.88,9.42,3.88-9.42h1.16l-4.46,10.65h-1.16l-4.46-10.65Z"/>
    </g>
    <g>
      <path class="cls-2" d="M40.77,26.81h2.6v.38h-2.6v2.35h-.35v-5.19h3.03v.4h-2.69v2.06Z"/>
      <path class="cls-2" d="M44.01,27.7c0-1.16.72-1.9,1.62-1.9s1.62.74,1.62,1.9-.72,1.87-1.62,1.87-1.62-.71-1.62-1.87ZM46.93,27.7c0-.95-.59-1.56-1.31-1.56s-1.31.61-1.31,1.56.59,1.52,1.31,1.52,1.31-.57,1.31-1.52Z"/>
      <path class="cls-2" d="M48.27,25.87v.65c.21-.5.66-.69,1.07-.69.24,0,.47.07.68.21l-.14.3c-.17-.12-.35-.17-.54-.17-.59,0-1.05.55-1.05,1.22v2.13h-.32v-3.66h.3Z"/>
      <path class="cls-2" d="M55.21,29.52v-2.19c0-.7-.41-1.2-1.02-1.2s-1.02.52-1.02,1.22v2.17h-.32v-2.17c0-.7-.42-1.21-1.02-1.21s-1.02.51-1.02,1.21v2.17h-.32v-3.66h.3v.61c.23-.48.63-.68,1.04-.68.48,0,.99.25,1.18.9.19-.6.69-.9,1.18-.9.78,0,1.33.63,1.33,1.54v2.19h-.32Z"/>
      <path class="cls-2" d="M59.47,25.87v3.66h-.32v-.78c-.31.57-.79.84-1.3.84-.89,0-1.62-.77-1.62-1.89s.73-1.87,1.62-1.87c.52,0,1.04.27,1.3.84v-.8h.32ZM56.55,27.7c0,.92.58,1.53,1.3,1.53,1.77,0,1.77-3.06,0-3.06-.72,0-1.3.61-1.3,1.52Z"/>
      <path class="cls-2" d="M63,29.01c-.32.37-.74.55-1.16.55-.9,0-1.64-.71-1.64-1.87s.71-1.86,1.64-1.86c.42,0,.84.18,1.16.55l-.21.23c-.26-.3-.61-.44-.95-.44-.72,0-1.33.54-1.33,1.52s.61,1.52,1.33,1.52c.34,0,.69-.16.95-.45l.21.24Z"/>
      <path class="cls-2" d="M64.06,24.68c0,.38-.51.38-.51,0s.51-.38.51,0ZM63.64,25.85v3.67h.32v-3.67h-.32Z"/>
      <path class="cls-2" d="M66.4,29.58c-.9,0-1.62-.71-1.62-1.87s.72-1.9,1.62-1.9,1.62.74,1.62,1.9-.72,1.87-1.62,1.87ZM66.4,29.22c.72,0,1.31-.57,1.31-1.52s-.59-1.56-1.31-1.56-1.31.61-1.31,1.56.59,1.52,1.31,1.52ZM66.49,25.23l.57-.85h0s-.41,0-.41,0l-.46.83v.03h.3Z"/>
      <path class="cls-2" d="M69.05,25.87v.65c.24-.5.69-.71,1.13-.72.85,0,1.44.6,1.44,1.61v2.11h-.32v-2.1c0-.83-.44-1.27-1.13-1.27-.66,0-1.11.58-1.11,1.33v2.04h-.32v-3.66h.31Z"/>
      <path class="cls-2" d="M74.21,31.05v-5.18h.31v.87c.25-.55.76-.92,1.38-.92.86.04,1.55.7,1.55,1.88s-.72,1.89-1.62,1.89c-.54,0-1.04-.3-1.31-.91v2.37h-.3ZM77.13,27.7c0-1.03-.58-1.53-1.3-1.53s-1.29.64-1.29,1.54.56,1.54,1.29,1.54,1.3-.52,1.3-1.55Z"/>
      <path class="cls-2" d="M78.51,25.87v.65c.21-.5.66-.69,1.07-.69.24,0,.47.07.68.21l-.14.3c-.17-.12-.35-.17-.54-.17-.59,0-1.05.55-1.05,1.22v2.13h-.32v-3.66h.3Z"/>
      <path class="cls-2" d="M80.59,27.7c0-1.16.72-1.9,1.62-1.9s1.62.74,1.62,1.9-.72,1.87-1.62,1.87-1.62-.71-1.62-1.87ZM83.51,27.7c0-.95-.59-1.56-1.31-1.56s-1.31.61-1.31,1.56.59,1.52,1.31,1.52,1.31-.57,1.31-1.52Z"/>
      <path class="cls-2" d="M84.87,29.52v-3.31h-.65v-.32h.65v-.33c0-.72.25-1.25.95-1.25.24,0,.45.1.63.25l-.15.27c-.17-.12-.3-.18-.49-.18-.4,0-.63.28-.63.92v.33h1.05v.32h-1.05v3.31h-.31Z"/>
      <path class="cls-2" d="M86.79,27.7c0-1.09.72-1.89,1.62-1.89s1.69.63,1.57,2.06h-2.87c.06.86.64,1.35,1.29,1.35.42,0,.91-.19,1.15-.55l.23.21c-.31.47-.86.7-1.37.7-.9,0-1.62-.72-1.62-1.88ZM89.7,27.55c0-.9-.52-1.41-1.29-1.41-.66,0-1.22.51-1.29,1.41h2.58Z"/>
      <path class="cls-2" d="M92.98,26.53c-.32-.33-.64-.38-.99-.38-.5,0-.97.21-.96.67.01.49.57.58.97.67.57.11,1.35.22,1.31,1.07-.02.81-.75,1.02-1.31,1.02s-1.11-.24-1.39-.73l.23-.24c.26.44.74.62,1.17.62.39,0,.97-.12.99-.7.01-.53-.52-.63-1.04-.73-.62-.12-1.23-.25-1.24-.98,0-.72.62-1.03,1.26-1.02.46,0,.87.15,1.18.49l-.19.24Z"/>
      <path class="cls-2" d="M94.43,24.68c0,.38-.51.38-.51,0s.51-.38.51,0ZM94.01,25.85v3.67h.32v-3.67h-.32Z"/>
      <path class="cls-2" d="M95.15,27.7c0-1.16.72-1.9,1.62-1.9s1.62.74,1.62,1.9-.72,1.87-1.62,1.87-1.62-.71-1.62-1.87ZM98.07,27.7c0-.95-.59-1.56-1.31-1.56s-1.31.61-1.31,1.56.59,1.52,1.31,1.52,1.31-.57,1.31-1.52Z"/>
      <path class="cls-2" d="M99.41,25.87v.65c.24-.5.69-.71,1.13-.72.85,0,1.44.6,1.44,1.61v2.11h-.32v-2.1c0-.83-.44-1.27-1.13-1.27-.66,0-1.11.58-1.11,1.33v2.04h-.32v-3.66h.31Z"/>
      <path class="cls-2" d="M105.87,25.87v3.66h-.32v-.78c-.31.57-.79.84-1.3.84-.89,0-1.62-.77-1.62-1.89s.73-1.87,1.62-1.87c.52,0,1.04.27,1.3.84v-.8h.32ZM102.95,27.7c0,.92.58,1.53,1.3,1.53,1.77,0,1.77-3.06,0-3.06-.72,0-1.3.61-1.3,1.52Z"/>
      <path class="cls-2" d="M107.04,24.34v5.18h-.32v-5.18h.32Z"/>
      <path class="cls-2" d="M109.51,27.7c0-1.09.72-1.89,1.62-1.89s1.69.63,1.57,2.06h-2.87c.06.86.64,1.35,1.29,1.35.42,0,.91-.19,1.15-.55l.23.21c-.31.47-.86.7-1.37.7-.9,0-1.62-.72-1.62-1.88ZM112.41,27.55c0-.9-.52-1.41-1.29-1.41-.66,0-1.22.51-1.29,1.41h2.58Z"/>
      <path class="cls-2" d="M113.82,25.87v.65c.24-.5.69-.71,1.13-.72.85,0,1.44.6,1.44,1.61v2.11h-.32v-2.1c0-.83-.44-1.27-1.13-1.27-.66,0-1.11.58-1.11,1.33v2.04h-.32v-3.66h.31Z"/>
      <path class="cls-2" d="M119.71,24.76v1.1h1.08v.3h-1.08v2.23c0,.5.09.84.59.84.15,0,.33-.06.49-.15l.11.3c-.2.11-.4.18-.6.18-.68,0-.9-.46-.9-1.18v-2.23h-.68v-.3h.68v-1.07l.31-.04Z"/>
      <path class="cls-2" d="M121.34,27.7c0-1.09.72-1.89,1.62-1.89s1.69.63,1.57,2.06h-2.87c.06.86.64,1.35,1.29,1.35.42,0,.91-.19,1.15-.55l.23.21c-.31.47-.86.7-1.37.7-.9,0-1.62-.72-1.62-1.88ZM124.24,27.55c0-.9-.52-1.41-1.29-1.41-.66,0-1.22.51-1.29,1.41h2.58Z"/>
      <path class="cls-2" d="M125.66,24.34v5.18h-.32v-5.18h.32Z"/>
      <path class="cls-2" d="M126.36,27.7c0-1.09.72-1.89,1.62-1.89s1.69.63,1.57,2.06h-2.87c.06.86.64,1.35,1.29,1.35.42,0,.91-.19,1.15-.55l.23.21c-.31.47-.86.7-1.37.7-.9,0-1.62-.72-1.62-1.88ZM129.26,27.55c0-.9-.52-1.41-1.29-1.41-.66,0-1.22.51-1.29,1.41h2.58Z"/>
      <path class="cls-2" d="M129.99,25.87h.35l1.16,3.23,1.16-3.23h.35l-1.33,3.66h-.35l-1.33-3.66Z"/>
      <path class="cls-2" d="M133.94,24.68c0,.38-.51.38-.51,0s.51-.38.51,0ZM133.52,25.85v3.67h.32v-3.67h-.32Z"/>
      <path class="cls-2" d="M136.92,26.53c-.32-.33-.64-.38-.99-.38-.5,0-.97.21-.96.67.01.49.57.58.97.67.57.11,1.35.22,1.31,1.07-.02.81-.75,1.02-1.31,1.02s-1.11-.24-1.39-.73l.23-.24c.26.44.74.62,1.17.62.39,0,.97-.12.99-.7.01-.53-.52-.63-1.04-.73-.62-.12-1.23-.25-1.24-.98,0-.72.62-1.03,1.26-1.02.46,0,.87.15,1.19.49l-.19.24Z"/>
      <path class="cls-2" d="M138.37,24.68c0,.38-.51.38-.51,0s.51-.38.51,0ZM137.95,25.85v3.67h.32v-3.67h-.32Z"/>
      <path class="cls-2" d="M140.7,29.58c-.9,0-1.62-.71-1.62-1.87s.72-1.9,1.62-1.9,1.62.74,1.62,1.9-.72,1.87-1.62,1.87ZM140.7,29.22c.72,0,1.31-.57,1.31-1.52s-.59-1.56-1.31-1.56-1.31.61-1.31,1.56.59,1.52,1.31,1.52ZM140.79,25.23l.57-.85h0s-.41,0-.41,0l-.46.83v.03h.3Z"/>
      <path class="cls-2" d="M143.36,25.87v.65c.24-.5.69-.71,1.13-.72.85,0,1.44.6,1.44,1.61v2.11h-.32v-2.1c0-.83-.44-1.27-1.13-1.27-.66,0-1.11.58-1.11,1.33v2.04h-.32v-3.66h.31Z"/>
      <path class="cls-2" d="M148.09,30.13l2.4-6.22h.35l-2.41,6.22h-.34Z"/>
      <path class="cls-3" d="M153.89,28.04c.04.36.34.64.86.64.25,0,.6-.07.82-.29l.52.67c-.34.38-.89.54-1.37.54-1.15,0-1.78-.78-1.78-1.95,0-1.11.65-1.89,1.69-1.89s1.79.78,1.59,2.27h-2.34ZM155.4,27.27c-.02-.4-.37-.58-.76-.58s-.66.22-.75.58h1.51Z"/>
      <path class="cls-3" d="M156.83,26.9h2.41v.92h-2.41v-.92Z"/>
      <path class="cls-3" d="M160.95,24.35v5.17h-.92v-5.17h.92Z"/>
      <path class="cls-3" d="M162.51,28.04c.04.36.34.64.86.64.25,0,.6-.07.82-.29l.52.67c-.34.38-.89.54-1.37.54-1.15,0-1.78-.78-1.78-1.95,0-1.11.65-1.89,1.69-1.89s1.79.78,1.59,2.27h-2.34ZM164.02,27.27c-.02-.4-.37-.58-.76-.58s-.66.22-.75.58h1.51Z"/>
      <path class="cls-3" d="M167.92,25.87h.87v3.66h-.84l-.05-.46c-.21.38-.67.53-.98.54-.95,0-1.64-.7-1.64-1.91s.73-1.92,1.67-1.91c.4,0,.77.18.94.5l.03-.42ZM166.21,27.7c0,.61.37.96.84.96.52,0,.84-.47.84-.92,0-.53-.29-1.01-.84-1.01-.46,0-.84.36-.84.97Z"/>
      <path class="cls-3" d="M170.44,25.87l.07.4c.21-.34.5-.49.85-.49.3,0,.55.1.78.33l-.39.84c-.15-.13-.32-.18-.51-.18-.4,0-.74.3-.74.84v1.9h-.93v-3.65h.86Z"/>
      <path class="cls-3" d="M174.79,29.52v-1.93c0-.56-.21-.85-.66-.85-.43,0-.72.42-.72.9v1.89h-.91v-3.66h.84l.03.47c.28-.42.64-.56,1.03-.56.71,0,1.33.39,1.33,1.81v1.94h-.93Z"/>
      <path class="cls-3" d="M177.46,24.9c0,.8-1.06.8-1.06,0s1.06-.8,1.06,0ZM176.46,25.86v3.66h.93v-3.66h-.93Z"/>
      <path class="cls-3" d="M180.47,29.52v-1.93c0-.56-.21-.85-.66-.85-.43,0-.72.42-.72.9v1.89h-.91v-3.66h.84l.03.47c.28-.42.64-.56,1.03-.56.71,0,1.33.39,1.33,1.81v1.94h-.93Z"/>
      <path class="cls-3" d="M182.87,30.03c.03.56.37.74.8.74s.79-.22.79-.67c0-.36-.2-.63-.77-.63-1.04,0-1.72-.71-1.72-1.84,0-1.24.83-1.86,1.72-1.86.23,0,.54.04.75.2l.35-.52.67.59-.41.55c.23.31.34.69.33,1.05-.01.52-.22,1.01-.68,1.28.71.36.71.96.71,1.18,0,1.09-.85,1.61-1.73,1.61-1.1,0-1.67-.63-1.66-1.68h.86ZM182.86,27.62c0,.53.35.87.82.87.42,0,.8-.29.8-.87,0-.51-.33-.92-.8-.92s-.82.33-.82.92Z"/>
    </g>
    <polygon class="cls-4" points="20.69 0 11.82 11.96 26.01 26.61 33.24 12.48 20.69 0"/>
    <polygon class="cls-3" points="18.85 0 7.55 7.16 0 17.21 10.64 11.36 18.85 0"/>
    <polygon class="cls-1" points="10.71 12.88 25.29 27.53 12.48 33.37 0 19.25 10.71 12.88"/>
  </g>
</svg>