<?xml version="1.0" encoding="UTF-8"?>
<svg id="Capa_2" xmlns="http://www.w3.org/2000/svg" viewBox="0 0 21.81 21.81">
  <defs>
    <style>
      .cls-1 {
        fill: #abcc5a;
      }

      .cls-2 {
        fill: #25301a;
      }
    </style>
  </defs>
  <g id="Capa_1-2" data-name="Capa_1">
    <g>
      <rect class="cls-2" width="21.81" height="21.81" rx="3.82" ry="3.82"/>
      <path class="cls-1" d="M5.44,7.53v6.75c.3.02.61.03.91.03.94,0,1.67-.28,2.2-.83.53-.57.8-1.45.8-2.66,0-1.13-.25-1.96-.75-2.5-.49-.55-1.18-.82-2.08-.82-.57,0-.93,0-1.08.03ZM3.71,15.44V6.36c0-.07.03-.1.09-.11,1.02-.02,1.93-.03,2.73-.03,1.51,0,2.65.42,3.44,1.26.79.84,1.18,1.94,1.18,3.31,0,.73-.1,1.37-.31,1.95-.2.57-.46,1.03-.78,1.38-.31.35-.69.64-1.14.88-.44.23-.87.39-1.31.48-.43.08-.87.13-1.34.13-.89,0-1.72,0-2.47-.03-.06,0-.09-.04-.09-.13Z"/>
      <path class="cls-1" d="M12.28,15.45v-5.16c0-.6-.02-1.1-.06-1.5-.02-.08,0-.11.09-.11h1.29c.09,0,.14.03.17.1.02.05.06.23.11.54.57-.51,1.22-.76,1.96-.76.27,0,.54.04.78.13.25.08.48.22.71.41.24.19.42.47.55.85.14.37.21.81.21,1.33v4.18c0,.08-.04.11-.11.11h-1.51c-.08,0-.11-.04-.11-.11v-4.22c0-.41-.09-.74-.28-.97-.18-.24-.45-.35-.82-.35-.49,0-.91.2-1.25.59v4.96c0,.08-.04.11-.11.11h-1.51c-.08,0-.11-.04-.11-.11Z"/>
    </g>
  </g>
</svg>