<?xml version="1.0" encoding="UTF-8"?>
<svg id="Capa_2" xmlns="http://www.w3.org/2000/svg" viewBox="0 0 21.28 21.28">
  <defs>
    <style>
      .cls-1 {
        fill: #694897;
      }

      .cls-2 {
        fill: #fff;
      }
    </style>
  </defs>
  <g id="Capa_1-2" data-name="Capa_1">
    <g>
      <circle class="cls-1" cx="10.64" cy="10.64" r="10.64"/>
      <path class="cls-2" d="M17.81,10.64c.03,3.94-3.24,7.19-7.18,7.19-3.93,0-7.17-3.25-7.17-7.2,0-3.93,3.24-7.19,7.19-7.18,3.93,0,7.19,3.26,7.15,7.2ZM3.99,10.63c.02,3.68,2.95,6.63,6.59,6.66,3.73.03,6.67-2.96,6.71-6.59.03-3.73-2.95-6.71-6.6-6.73-3.72-.02-6.67,2.99-6.69,6.66ZM8.27,10.7c0-1.16,0-2.32,0-3.49,0-.28.06-.33.33-.33.71,0,1.41,0,2.12,0,1.6,0,2.87.95,3.31,2.48.38,1.3.27,2.56-.45,3.73-.53.87-1.35,1.35-2.35,1.47-.7.08-1.42.04-2.13.05-.17,0-.34,0-.5,0-.21,0-.33-.12-.33-.33,0-.17,0-.35,0-.52,0-1.02,0-2.03,0-3.05ZM8.78,10.73c0,1.07,0,2.14,0,3.21,0,.09,0,.17.13.17.68-.01,1.37.03,2.05-.04,1.26-.13,2.15-.87,2.52-2.02.2-.61.19-1.23.15-1.85-.03-.53-.18-1.04-.47-1.49-.59-.92-1.48-1.3-2.53-1.35-.54-.02-1.07,0-1.61,0q-.23,0-.23.23c0,1.05,0,2.1,0,3.14Z"/>
    </g>
  </g>
</svg>