<?xml version="1.0" encoding="UTF-8"?>
<svg id="Capa_2" xmlns="http://www.w3.org/2000/svg" viewBox="0 0 12.85 16.4">
  <defs>
    <style>
      .cls-1 {
        fill: #49b48b;
      }
    </style>
  </defs>
  <g id="Capa_1-2" data-name="Capa_1">
    <g>
      <path class="cls-1" d="M5.83,0h2.71v12.41c-1.16.24-2.33.36-3.51.37-3.31,0-5.03-1.48-5.03-4.32S1.83,3.95,4.66,3.95c.4,0,.79.04,1.18.14V0h0ZM5.83,6.25c-.29-.1-.6-.14-.91-.14-1.37,0-2.16.84-2.16,2.3s.76,2.21,2.14,2.21c.31,0,.62-.02.93-.07v-4.3h0Z"/>
      <path class="cls-1" d="M12.85,4.14v6.22c0,2.14-.16,3.17-.63,4.06-.48.9-1.26,1.61-2.21,1.98l-2.51-1.18c.91-.31,1.68-.95,2.15-1.8.39-.77.51-1.65.51-3.99v-5.29h2.7Z"/>
      <rect class="cls-1" x="10.14" y=".01" width="2.71" height="2.75"/>
    </g>
  </g>
</svg>