<?xml version="1.0" encoding="UTF-8"?>
<svg id="Capa_2" xmlns="http://www.w3.org/2000/svg" viewBox="0 0 19.58 20.69">
  <defs>
    <style>
      .cls-1 {
        fill: #fff;
      }

      .cls-2 {
        fill: #fab324;
      }
    </style>
  </defs>
  <g id="Layer_1">
    <g>
      <path class="cls-2" d="M10.23.01C4.84-.24.27,3.97.01,9.36c-.15,2.84.97,5.59,3.05,7.57l-1.37,3.76,3.86-2.03c1.17.56,2.49.91,3.76.91,5.44.25,10.01-3.96,10.26-9.35S15.71.32,10.38.01q-.05,0-.15,0"/>
      <path class="cls-1" d="M14.19,9c-.46.61-1.32.81-1.93.36-.2-.15-.41-.36-.51-.61-.25-.91-1.12-1.52-2.03-1.52s-1.73.61-1.98,1.52c-.3.71-1.12,1.02-1.83.71-.25-.1-.46-.25-.61-.51-.25-.36-.3-.81-.15-1.22,0,0,1.12-3.3,4.57-3.3s4.57,3.3,4.57,3.3c.2.46.15.91-.1,1.27"/>
    </g>
  </g>
</svg>