<?xml version="1.0" encoding="UTF-8"?>
<svg id="Capa_2" xmlns="http://www.w3.org/2000/svg" viewBox="0 0 21.81 21.81">
  <defs>
    <style>
      .cls-1 {
        fill: #3e1235;
      }

      .cls-2 {
        fill: #bb7bb3;
      }
    </style>
  </defs>
  <g id="Capa_1-2" data-name="Capa_1">
    <g>
      <rect class="cls-1" width="21.81" height="21.81" rx="3.82" ry="3.82"/>
      <path class="cls-2" d="M3.86,7.53v6.75c.29.02.59.03.88.03.91,0,1.62-.28,2.13-.83.51-.57.77-1.45.77-2.66,0-1.13-.24-1.96-.73-2.5-.48-.55-1.15-.82-2.01-.82-.55,0-.9,0-1.05.03ZM2.18,15.44V6.36c0-.07.03-.1.08-.11.99-.02,1.87-.03,2.64-.03,1.46,0,2.57.42,3.33,1.26.76.84,1.14,1.94,1.14,3.31,0,.73-.1,1.37-.3,1.95-.19.57-.44,1.03-.76,1.38-.3.35-.67.64-1.1.88-.42.23-.84.39-1.27.48-.41.08-.84.13-1.29.13-.86,0-1.66,0-2.39-.03-.06,0-.08-.04-.08-.13Z"/>
      <path class="cls-2" d="M17.55,15.57h-1.47c-.06,0-.11-.04-.14-.11-.65-2.8-1.02-4.44-1.11-4.94h-.01c-.04.22-.11.53-.22.95-.1.4-.27,1.02-.5,1.84-.22.81-.41,1.53-.58,2.16-.02.08-.06.11-.14.11h-1.46c-.08,0-.14-.04-.17-.11l-1.76-6.64c-.02-.08.01-.13.1-.13h1.5c.06,0,.1.03.12.1.53,2.21.9,3.9,1.11,5.07h.03c.06-.29.46-1.98,1.22-5.06.03-.08.07-.11.12-.11h1.42c.06,0,.09.03.1.1.67,2.82,1.05,4.52,1.16,5.11h.03c.25-1.3.64-3,1.17-5.11,0-.07.05-.1.12-.1h1.35c.06,0,.09.03.08.1l-1.93,6.67c-.04.08-.09.11-.15.11Z"/>
    </g>
  </g>
</svg>