<?xml version="1.0" encoding="UTF-8"?>
<svg id="Capa_2" xmlns="http://www.w3.org/2000/svg" viewBox="0 0 21.81 21.81">
  <defs>
    <style>
      .cls-1 {
        fill: #e95025;
      }

      .cls-2 {
        fill: #1f1f1f;
      }

      .cls-3 {
        fill: #46b7ea;
      }

      .cls-4 {
        fill: #4cb37d;
      }

      .cls-5 {
        fill: #765fa6;
      }

      .cls-6 {
        fill: #ee7265;
      }
    </style>
  </defs>
  <g id="Capa_1-2" data-name="Capa_1">
    <g>
      <rect class="cls-2" y="0" width="21.81" height="21.81" rx="3.55" ry="3.55"/>
      <path class="cls-3" d="M10.91,11.03c0-.61.24-1.2.67-1.63s1.02-.67,1.63-.67,1.2.24,1.63.67c.43.43.67,1.02.67,1.63s-.24,1.2-.67,1.63-1.02.67-1.63.67-1.2-.24-1.63-.67c-.43-.43-.67-1.02-.67-1.63Z"/>
      <path class="cls-4" d="M6.3,15.63c0-.61.24-1.2.67-1.63.43-.43,1.02-.67,1.63-.67h2.3v2.3c0,.61-.24,1.2-.67,1.63-.43.43-1.02.67-1.63.67s-1.2-.24-1.63-.67c-.43-.43-.67-1.02-.67-1.63Z"/>
      <path class="cls-6" d="M10.91,4.12v4.6h2.3c.61,0,1.2-.24,1.63-.67s.67-1.02.67-1.63-.24-1.2-.67-1.63c-.43-.43-1.02-.67-1.63-.67h-2.3Z"/>
      <path class="cls-1" d="M6.3,6.42c0,.61.24,1.2.67,1.63.43.43,1.02.67,1.63.67h2.3v-4.6h-2.3c-.61,0-1.2.24-1.63.67-.43.43-.67,1.02-.67,1.63Z"/>
      <path class="cls-5" d="M6.3,11.03c0,.61.24,1.2.67,1.63.43.43,1.02.67,1.63.67h2.3v-4.6h-2.3c-.61,0-1.2.24-1.63.67-.43.43-.67,1.02-.67,1.63Z"/>
    </g>
  </g>
</svg>