<?xml version="1.0" encoding="UTF-8"?>
<svg id="Capa_2" data-name="Capa 2" xmlns="http://www.w3.org/2000/svg" viewBox="0 0 100 84.33">
  <g id="Capa_1-2" data-name="Capa 1">
    <path d="M0,21.12c.8-4.18,3.81-7.79,7.99-8.82.1-4.33-.9-8.92,3.63-11.33C13.54-.06,18.85-.15,20.89.48c1.82.57,4.7,3.32,4.7,5.27v6.16h4.59c1.29-2.48,1.52-5.52,3.06-7.89,1.36-2.09,4-3.65,6.5-3.86,6.56-.56,13.88.44,20.52,0,3.07.34,5.93,2.27,7.22,5.09.43.94,1.93,6.48,2.37,6.63l20.48.03c5.1.55,9.23,4.73,9.68,9.87v52.65c-.46,5.13-4.58,9.33-9.68,9.87H9.86c-4.67-.29-9.3-4.52-9.86-9.19V21.12ZM19.73,11.92v-5.19c0-.13-.63-.63-.88-.68-.51-.1-4.03-.07-4.39.1-.1.05-.59.54-.59.58v5.19h5.86ZM40.18,6.1c-.9.26-1.63.55-2.14,1.38-1.31,2.15-1.78,6.21-2.94,8.6-.54,1.11-1.36,1.61-2.58,1.72-6.99.66-15.37-.81-22.25.01-2.45.29-4.29,2.3-4.42,4.77v51.09c.24,2.78,2.19,4.66,4.98,4.8h78.53c2.81-.24,4.62-2.17,4.79-4.99V22.58c-.22-2.58-1.99-4.52-4.6-4.78-6.95-.7-15.1.66-22.07,0-1.22-.12-2.04-.61-2.58-1.72-1.16-2.39-1.64-6.45-2.94-8.6-.5-.83-1.24-1.12-2.14-1.38h-19.63ZM31.32,27.45c12.45-12.47,33.39-9.35,41.83,5.99,10.84,19.72-6.5,43.02-28.43,38.66-20.44-4.07-28.23-29.79-13.4-44.65ZM48.59,25.68c-15.87,1.12-24.45,19.12-15.35,32.29s30.67,10.62,36.1-5.05c4.81-13.88-6.15-28.27-20.74-27.24ZM14.74,29.54c1.37.13,5.33.18,6.6-.05,3.09-.57,3.19-5.48-.53-5.83-1.44-.14-5.24-.17-6.6.05-3.14.53-3.17,5.48.53,5.83ZM85.79,29.49c3.49-.63,2.89-6.45-1.28-5.78-3.57.58-2.81,6.51,1.28,5.78ZM48.2,31.55c12.44-1.28,20.96,12.13,14.06,22.7-5.75,8.82-18.76,8.8-24.53,0s-.26-21.6,10.47-22.7ZM49.17,37.42c-12.25,1.15-9.21,20.24,2.98,17.27,10.27-2.5,7.78-18.27-2.98-17.27Z"/>
  </g>
</svg>