<?xml version="1.0" encoding="UTF-8"?>
<svg id="Capa_2" data-name="Capa 2" xmlns="http://www.w3.org/2000/svg" viewBox="0 0 19.99 20.4">
  <defs>
    <style>
      .cls-1 {
        fill: #32a853;
      }

      .cls-2 {
        fill: #e84436;
      }

      .cls-3 {
        fill: #517cbe;
      }

      .cls-4 {
        fill: #fbbc0c;
      }
    </style>
  </defs>
  <g id="Capa_1-2" data-name="Capa 1">
    <g>
      <path class="cls-3" d="M19.99,10.43c0-.84-.07-1.45-.22-2.09h-9.58v3.79h5.62c-.11.94-.73,2.36-2.09,3.31l-.02.13,3.03,2.35.21.02c1.93-1.78,3.04-4.4,3.04-7.5"/>
      <path class="cls-1" d="M10.2,20.4c2.75,0,5.07-.91,6.75-2.47l-3.22-2.49c-.86.6-2.02,1.02-3.54,1.02-2.7,0-4.99-1.78-5.8-4.24h-.12s-3.15,2.45-3.15,2.45l-.04.11c1.68,3.33,5.12,5.62,9.11,5.62"/>
      <path class="cls-4" d="M4.4,12.22c-.22-.63-.34-1.31-.34-2.02s.12-1.38.33-2.02v-.14s-3.19-2.48-3.19-2.48l-.1.05c-.69,1.38-1.09,2.94-1.09,4.58s.4,3.2,1.09,4.58l3.31-2.56"/>
      <path class="cls-2" d="M10.2,3.94c1.92,0,3.21.83,3.94,1.52l2.88-2.81c-1.77-1.64-4.07-2.65-6.82-2.65C6.21,0,2.77,2.29,1.09,5.62l3.3,2.56c.83-2.46,3.12-4.24,5.81-4.24"/>
    </g>
  </g>
</svg>