<?xml version="1.0" encoding="UTF-8"?>
<svg id="Capa_2" xmlns="http://www.w3.org/2000/svg" viewBox="0 0 21.81 21.81">
  <defs>
    <style>
      .cls-1 {
        fill: #2a0e0c;
      }

      .cls-2 {
        fill: #f3a032;
      }
    </style>
  </defs>
  <g id="Capa_1-2" data-name="Capa_1">
    <g>
      <rect class="cls-1" width="21.81" height="21.81" rx="3.82" ry="3.82"/>
      <path class="cls-2" d="M8.17,11.94h2.55c-.04-.13-.24-.74-.59-1.81-.35-1.08-.58-1.82-.69-2.22h-.01c-.11.48-.53,1.83-1.24,4.03ZM11.09,13.32h-3.28l-.82,2.49c0,.08-.06.11-.16.11h-1.49c-.09,0-.13-.05-.1-.14l2.94-8.45c.07-.14.11-.41.13-.8,0-.06.03-.09.1-.09h2.04s.08.02.11.07l3.28,9.28c.03.09,0,.13-.08.13h-1.67c-.07,0-.11-.03-.14-.1l-.86-2.5Z"/>
      <path class="cls-2" d="M16.32,7.55c-.17.17-.4.26-.69.26s-.52-.09-.69-.26c-.17-.17-.25-.4-.25-.7s.09-.52.27-.7.41-.27.69-.27.51.09.68.27.25.41.25.7-.08.53-.25.7ZM14.72,15.79v-6.69c0-.08.04-.11.11-.11h1.57c.08,0,.11.04.11.11v6.7c0,.08-.04.11-.11.11h-1.56c-.08,0-.13-.04-.13-.13Z"/>
    </g>
  </g>
</svg>