<?xml version="1.0" encoding="UTF-8"?>
<svg id="Capa_2" xmlns="http://www.w3.org/2000/svg" viewBox="0 0 21.81 21.81">
  <defs>
    <style>
      .cls-1 {
        fill: #ea4f68;
      }

      .cls-2 {
        fill: #411121;
      }
    </style>
  </defs>
  <g id="Capa_1-2" data-name="Capa_1">
    <g>
      <rect class="cls-2" y="0" width="21.81" height="21.81" rx="3.82" ry="3.82"/>
      <path class="cls-1" d="M8.57,6.22v9.21c0,.09-.04.13-.11.13h-1.57c-.09,0-.13-.04-.13-.13V6.22c0-.08.04-.11.13-.11h1.57c.08,0,.11.04.11.11Z"/>
      <path class="cls-1" d="M15.05,14.19v1.14c0,.07-.02.11-.07.13-.42.17-.96.26-1.64.26-1.12,0-2-.33-2.63-.99s-.95-1.52-.95-2.57.35-1.92,1.05-2.6,1.62-1.02,2.75-1.02c.64,0,1.11.07,1.41.2.06.05.09.1.09.16v1.14c-.01.09-.05.12-.13.09-.34-.17-.75-.26-1.24-.26-.63,0-1.13.2-1.51.61-.37.41-.56.95-.56,1.63,0,.73.2,1.29.61,1.68.41.38.9.57,1.48.57.48,0,.9-.07,1.24-.21.07-.03.1,0,.1.07Z"/>
    </g>
  </g>
</svg>