<?xml version="1.0" encoding="UTF-8"?>
<svg id="Capa_2" xmlns="http://www.w3.org/2000/svg" viewBox="0 0 21.81 21.81">
  <defs>
    <style>
      .cls-1 {
        fill: #ea4f68;
      }

      .cls-2 {
        fill: #411121;
      }
    </style>
  </defs>
  <g id="Capa_1-2" data-name="Capa_1">
    <g>
      <rect class="cls-2" width="21.81" height="21.81" rx="3.82" ry="3.82"/>
      <path class="cls-1" d="M8.06,6.65v9.13c0,.09-.04.13-.11.13h-1.5c-.08,0-.11-.04-.11-.13V6.65c0-.08.04-.11.11-.11h1.52c.07,0,.1.04.1.11Z"/>
      <path class="cls-1" d="M13.71,14.63v-4.39c-.19-.1-.45-.16-.77-.16-.58,0-1.05.2-1.42.61-.36.41-.54.98-.54,1.73,0,.8.18,1.38.53,1.76.36.38.82.57,1.37.57.34,0,.62-.04.83-.13ZM12.71,16.03c-1.07,0-1.92-.3-2.56-.89-.64-.6-.96-1.48-.96-2.64,0-1.06.34-1.93,1.03-2.61.69-.68,1.6-1.02,2.74-1.02.29,0,.53.02.74.07v-3.07c0-.06.03-.09.09-.09h1.57s.07.03.07.09v8.51c0,.36.01.67.04.94,0,.06-.01.1-.07.13-.83.4-1.73.6-2.7.6Z"/>
    </g>
  </g>
</svg>