<?xml version="1.0" encoding="UTF-8"?>
<svg id="Capa_2" xmlns="http://www.w3.org/2000/svg" xmlns:xlink="http://www.w3.org/1999/xlink" viewBox="0 0 21.81 21.81">
  <defs>
    <style>
      .cls-1 {
        fill: url(#Degradado_sin_nombre_11);
      }

      .cls-2 {
        fill: #fff;
      }

      .cls-3 {
        fill: url(#Degradado_sin_nombre_13);
      }

      .cls-4 {
        fill: url(#Degradado_sin_nombre_10);
      }

      .cls-5 {
        fill: url(#Degradado_sin_nombre_12);
      }
    </style>
    <radialGradient id="Degradado_sin_nombre_13" data-name="Degradado sin nombre 13" cx="2846.76" cy="533.4" fx="2846.76" fy="533.4" r="1.14" gradientTransform="translate(32187.92 -13934.72) rotate(164.25) scale(12.2 -8.79)" gradientUnits="userSpaceOnUse">
      <stop offset="0" stop-color="#e72563"/>
      <stop offset="1" stop-color="#c24a95"/>
    </radialGradient>
    <radialGradient id="Degradado_sin_nombre_12" data-name="Degradado sin nombre 12" cx="2748.67" cy="1065.67" fx="2748.67" fy="1065.67" r="1.14" gradientTransform="translate(17245.14 41933.25) rotate(-90) scale(15.25 -16.18)" gradientUnits="userSpaceOnUse">
      <stop offset="0" stop-color="#ffcc13"/>
      <stop offset=".12" stop-color="#ffcc13"/>
      <stop offset=".57" stop-color="#e84b1f"/>
      <stop offset=".69" stop-color="#e62a46"/>
      <stop offset="1" stop-color="#e7265c" stop-opacity="0"/>
    </radialGradient>
    <radialGradient id="Degradado_sin_nombre_11" data-name="Degradado sin nombre 11" cx="2722.37" cy="1446.95" fx="2722.37" fy="1446.95" r="1.42" gradientTransform="translate(1345.61 16779.61) rotate(-59.87) scale(5.08 -6.61)" gradientUnits="userSpaceOnUse">
      <stop offset="0" stop-color="#ffcc13"/>
      <stop offset="1" stop-color="#ffcc13" stop-opacity="0"/>
    </radialGradient>
    <radialGradient id="Degradado_sin_nombre_10" data-name="Degradado sin nombre 10" cx="2785.87" cy="755.33" fx="2785.87" fy="755.33" r="1.46" gradientTransform="translate(24604.82 -9444.8) rotate(164.27) scale(9.42 -3.21)" gradientUnits="userSpaceOnUse">
      <stop offset="0" stop-color="#5f4595"/>
      <stop offset="1" stop-color="#654494" stop-opacity="0"/>
    </radialGradient>
  </defs>
  <g id="Capa_1-2" data-name="Capa_1">
    <g>
      <path class="cls-3" d="M10.91,0C6.36,0,5.02,0,4.77.03c-.93.08-1.52.22-2.15.54-.49.24-.87.52-1.25.92C.67,2.2.25,3.09.1,4.14.03,4.65,0,4.75,0,7.36,0,8.23,0,9.37,0,10.9,0,15.45,0,16.78.03,17.04c.08.91.22,1.48.52,2.11.58,1.2,1.68,2.1,2.98,2.43.45.12.95.18,1.58.21.27.01,3.02.02,5.78.02s5.51,0,5.77-.02c.74-.03,1.17-.09,1.64-.21,1.31-.34,2.39-1.22,2.98-2.44.3-.61.45-1.2.51-2.07.01-.19.02-3.18.02-6.18s0-5.98-.02-6.17c-.07-.88-.22-1.46-.52-2.09-.25-.51-.53-.89-.93-1.28-.72-.69-1.6-1.11-2.66-1.26-.51-.07-.61-.1-3.22-.1h-3.55Z"/>
      <path class="cls-5" d="M10.91,0C6.36,0,5.02,0,4.77.03c-.93.08-1.52.22-2.15.54-.49.24-.87.52-1.25.92C.67,2.2.25,3.09.1,4.14.03,4.65,0,4.75,0,7.36,0,8.23,0,9.37,0,10.9,0,15.45,0,16.78.03,17.04c.08.91.22,1.48.52,2.11.58,1.2,1.68,2.1,2.98,2.43.45.12.95.18,1.58.21.27.01,3.02.02,5.78.02s5.51,0,5.77-.02c.74-.03,1.17-.09,1.64-.21,1.31-.34,2.39-1.22,2.98-2.44.3-.61.45-1.2.51-2.07.01-.19.02-3.18.02-6.18s0-5.98-.02-6.17c-.07-.88-.22-1.46-.52-2.09-.25-.51-.53-.89-.93-1.28-.72-.69-1.6-1.11-2.66-1.26-.51-.07-.61-.1-3.22-.1h-3.55Z"/>
      <path class="cls-1" d="M10.91,0C6.36,0,5.02,0,4.77.03c-.93.08-1.52.22-2.15.54-.49.24-.87.52-1.25.92C.67,2.2.25,3.09.1,4.14.03,4.65,0,4.75,0,7.36,0,8.23,0,9.37,0,10.9,0,15.45,0,16.78.03,17.04c.08.91.22,1.48.52,2.11.58,1.2,1.68,2.1,2.98,2.43.45.12.95.18,1.58.21.27.01,3.02.02,5.78.02s5.51,0,5.77-.02c.74-.03,1.17-.09,1.64-.21,1.31-.34,2.39-1.22,2.98-2.44.3-.61.45-1.2.51-2.07.01-.19.02-3.18.02-6.18s0-5.98-.02-6.17c-.07-.88-.22-1.46-.52-2.09-.25-.51-.53-.89-.93-1.28-.72-.69-1.6-1.11-2.66-1.26-.51-.07-.61-.1-3.22-.1h-3.55Z"/>
      <path class="cls-4" d="M10.91,0C6.36,0,5.02,0,4.77.03c-.93.08-1.52.22-2.15.54-.49.24-.87.52-1.25.92C.67,2.2.25,3.09.1,4.14.03,4.65,0,4.75,0,7.36,0,8.23,0,9.37,0,10.9,0,15.45,0,16.78.03,17.04c.08.91.22,1.48.52,2.11.58,1.2,1.68,2.1,2.98,2.43.45.12.95.18,1.58.21.27.01,3.02.02,5.78.02s5.51,0,5.77-.02c.74-.03,1.17-.09,1.64-.21,1.31-.34,2.39-1.22,2.98-2.44.3-.61.45-1.2.51-2.07.01-.19.02-3.18.02-6.18s0-5.98-.02-6.17c-.07-.88-.22-1.46-.52-2.09-.25-.51-.53-.89-.93-1.28-.72-.69-1.6-1.11-2.66-1.26-.51-.07-.61-.1-3.22-.1h-3.55Z"/>
      <path class="cls-2" d="M10.91,2.8c-2.2,0-2.48,0-3.34.05-.86.04-1.45.18-1.97.38-.53.21-.99.48-1.44.93-.45.45-.73.9-.94,1.44-.2.52-.34,1.1-.38,1.97-.04.86-.05,1.14-.05,3.34s0,2.48.05,3.34c.04.86.18,1.45.38,1.97.21.53.48.99.94,1.44.45.45.9.73,1.44.94.52.2,1.11.34,1.97.38.87.04,1.14.05,3.34.05s2.48,0,3.34-.05c.86-.04,1.45-.18,1.97-.38.53-.21.99-.48,1.44-.94.45-.45.73-.9.94-1.44.2-.52.34-1.1.38-1.97.04-.86.05-1.14.05-3.34s-.01-2.48-.05-3.34c-.04-.86-.18-1.45-.38-1.97-.21-.53-.48-.99-.94-1.44-.45-.45-.9-.73-1.44-.93-.52-.2-1.11-.34-1.97-.38-.87-.04-1.14-.05-3.34-.05h0ZM10.18,4.26c.22,0,.46,0,.73,0,2.17,0,2.42,0,3.28.05.79.04,1.22.17,1.51.28.38.15.65.32.93.61.28.28.46.55.61.93.11.29.24.71.28,1.5.04.85.05,1.11.05,3.27s0,2.42-.05,3.27c-.04.79-.17,1.22-.28,1.5-.15.38-.32.65-.61.93-.28.28-.55.46-.93.61-.29.11-.72.24-1.51.28-.85.04-1.11.05-3.28.05s-2.42,0-3.28-.05c-.79-.04-1.22-.17-1.51-.28-.38-.15-.65-.32-.93-.61-.28-.28-.46-.55-.61-.93-.11-.29-.24-.71-.28-1.5-.04-.85-.05-1.11-.05-3.28s0-2.42.05-3.27c.04-.79.17-1.22.28-1.5.15-.38.32-.65.61-.93.28-.28.55-.46.93-.61.29-.11.72-.24,1.51-.28.75-.03,1.04-.04,2.55-.05h0ZM15.24,5.61c-.54,0-.97.44-.97.97s.44.97.97.97.97-.44.97-.97-.44-.97-.97-.97h0ZM10.91,6.74c-2.3,0-4.16,1.86-4.16,4.16s1.86,4.16,4.16,4.16,4.16-1.86,4.16-4.16-1.86-4.16-4.16-4.16h0ZM10.91,8.2c1.49,0,2.7,1.21,2.7,2.7s-1.21,2.7-2.7,2.7-2.7-1.21-2.7-2.7,1.21-2.7,2.7-2.7h0Z"/>
    </g>
  </g>
</svg>