<?xml version="1.0" encoding="UTF-8"?>
<svg id="Capa_2" xmlns="http://www.w3.org/2000/svg" viewBox="0 0 21.81 21.81">
  <defs>
    <style>
      .cls-1 {
        fill: #131f34;
      }

      .cls-2 {
        fill: #649fd6;
      }
    </style>
  </defs>
  <g id="Capa_1-2" data-name="Capa_1">
    <g>
      <rect class="cls-1" width="21.81" height="21.81" rx="3.82" ry="3.82"/>
      <path class="cls-2" d="M7.44,15.58H2.31c-.08,0-.13-.05-.13-.14V6.36c0-.08.04-.11.11-.11h1.5c.06,0,.08.03.08.1v7.9h3.83c.08,0,.12.04.1.11l-.22,1.1c-.02.08-.07.11-.14.11Z"/>
      <path class="cls-2" d="M8.56,8.69h1.31c.07,0,.13.04.15.11.07.19.12.46.14.82.54-.71,1.25-1.06,2.14-1.06.07,0,.1.03.1.1v1.43c0,.08-.04.11-.11.1-.81-.05-1.45.16-1.91.64-.08.08-.13.2-.13.34v4.31c0,.07-.04.1-.11.1h-1.47c-.08,0-.13-.04-.13-.11v-4.78c0-.76-.02-1.39-.07-1.89,0-.07.02-.1.08-.1Z"/>
      <path class="cls-2" d="M19.55,14.11v1.13c0,.08-.03.15-.1.18-.46.19-1.09.28-1.91.28-1.32,0-2.42-.4-3.28-1.2-.87-.8-1.3-2.01-1.3-3.63,0-1.43.43-2.58,1.29-3.45.87-.88,2.01-1.31,3.42-1.31.85,0,1.48.1,1.89.3.06.02.08.07.08.16v1.23c0,.11-.04.14-.11.08-.47-.26-1.07-.4-1.8-.4-.93,0-1.67.29-2.21.88-.54.57-.81,1.39-.81,2.46,0,.65.09,1.22.28,1.7.2.48.45.84.77,1.09.32.24.64.42.98.54.34.11.7.17,1.08.17.6,0,1.15-.09,1.65-.27.07-.03.1,0,.1.07Z"/>
    </g>
  </g>
</svg>