<?xml version="1.0" encoding="UTF-8"?>
<svg id="Capa_2" xmlns="http://www.w3.org/2000/svg" viewBox="0 0 21.81 21.81">
  <defs>
    <style>
      .cls-1 {
        fill: #fff;
      }

      .cls-2 {
        fill: #0278b6;
      }
    </style>
  </defs>
  <g id="Capa_1-2" data-name="Capa_1">
    <g>
      <path class="cls-2" d="M10.91,0C4.88,0,0,4.88,0,10.91s4.88,10.91,10.91,10.91,10.91-4.88,10.91-10.91S16.93,0,10.91,0h0Z"/>
      <path class="cls-1" d="M7.74,16.49h-2.66v-7.99h2.66v7.99ZM6.41,7.4h-.02c-.89,0-1.47-.61-1.47-1.38s.59-1.38,1.5-1.38,1.47.6,1.49,1.38c0,.77-.58,1.38-1.5,1.38h0ZM17.31,16.49h-2.66v-4.28c0-1.07-.38-1.81-1.35-1.81-.73,0-1.17.49-1.36.97-.07.17-.09.41-.09.65v4.46h-2.66s.03-7.24,0-7.99h2.66v1.13c.35-.54.98-1.32,2.39-1.32,1.75,0,3.06,1.14,3.06,3.6v4.58Z"/>
    </g>
  </g>
</svg>