<?xml version="1.0" encoding="UTF-8"?>
<svg id="Capa_2" xmlns="http://www.w3.org/2000/svg" viewBox="0 0 21.81 21.81">
  <defs>
    <style>
      .cls-1 {
        fill: #222;
      }

      .cls-2 {
        fill: #fd2;
      }
    </style>
  </defs>
  <g id="Capa_1-2" data-name="Capa_1">
    <g>
      <rect class="cls-2" width="21.81" height="21.81" rx="3.27" ry="3.27"/>
      <path class="cls-1" d="M17.81,13.04l-.26-.72s1.07-1.62-1.58-2.17c0,0,.17-2-.77-2.94,2.04-2,1.58-5.03-3.07-3.07C9.76-.43.55,10.27,4.39,11.97c-.38.51-.38,3.07,2.26,3.32,1.79,3.83,6.13,4.09,8.65,2.94s3.96-4.81,2.51-5.2ZM6.6,14.74c-2.17-.21-2.39-3.2-.51-3.49s2.34,3.66.51,3.49ZM5.96,10.69c-.6,0-1.32.81-1.32.81-2.9-1.41,5.24-10.74,6.99-7.11,0,0-4.26,2.04-5.67,6.31ZM14.48,14.31c0-.17-.89.26-2.51-.3.13-.89,2.04.77,5.24-1.41l.26.89c1.19-.21,0,3.83-3.83,3.79-3.11-.04-4.09-3.24-2.39-4.98.34-.34-1.24-1.02-.94-2.51.13-.64.68-1.58,2.09-1.32s1.7-1.02,2.64-.55.38,2.26.51,2.51,1.49.3,1.75,1.02-1.75,2.3-4.86,1.87c-.72-.09-1.15.85-.68,1.45.94,1.36,4.77.47,5.41-.85-1.62,1.24-4.94,1.7-5.2.38.94.43,2.51.17,2.51,0ZM8.9,7.58c.94-1.15,2.17-1.83,2.17-1.83l-.26.64s.89-.68,1.87-.68l-.34.34c1.11.04,1.58.47,1.58.47,0,0-2.6-.77-5.03,1.07ZM14.66,9.24c.55-.04.38,1.24.38,1.24h-.34s-.6-1.19-.04-1.24ZM12.14,10.65c-.38.04-.81.26-.77.09.17-.68,1.75-.51,1.7.09s-.38-.26-.94-.17ZM13.04,11.16c.04.09-.3,0-.55.04s-.51.17-.51.09.98-.47,1.07-.13ZM13.89,11.29c.13-.26.64,0,.51.26s-.64,0-.51-.26ZM14.95,11.37c-.26,0-.26-.55,0-.55s.26.6,0,.6v-.04ZM7.29,13.63c.13.13-.26.38-.55.17s.34-1.24-.43-1.49-.55.72-.77.6.3-1.49,1.19-.94-.26,1.41.26,1.66.21-.09.3,0Z"/>
    </g>
  </g>
</svg>