<?xml version="1.0" encoding="UTF-8"?>
<svg id="Capa_2" xmlns="http://www.w3.org/2000/svg" viewBox="0 0 21.81 21.81">
  <defs>
    <style>
      .cls-1 {
        fill: #9495c9;
      }

      .cls-2 {
        fill: #20244c;
      }
    </style>
  </defs>
  <g id="Capa_1-2" data-name="Capa_1">
    <g>
      <rect class="cls-2" width="21.81" height="21.81" rx="3.82" ry="3.82"/>
      <path class="cls-1" d="M2.69,6.19c0-.06.05-.09.11-.09h2.37c.08,0,.13.03.14.1,1.21,4.15,1.87,6.48,1.97,7.01h.01c.11-.45.46-1.65,1.05-3.59.59-1.95.94-3.09,1.03-3.42.03-.07.07-.1.13-.1h2.29c.07,0,.1.03.11.09l.4,9.26c0,.08-.03.11-.11.11h-1.66c-.08,0-.11-.03-.11-.1-.08-3.8-.1-6.5-.07-8.08h-.01c-.06.25-.83,2.94-2.31,8.08-.03.07-.08.1-.14.1h-1.39c-.09,0-.15-.03-.16-.1-1-3.41-1.74-6.1-2.21-8.09h-.01c-.02,2.4-.09,5.1-.23,8.09,0,.07-.04.1-.11.1h-1.49c-.08,0-.12-.04-.11-.11l.51-9.26Z"/>
      <path class="cls-1" d="M15.15,11.33h2.01c.44,0,.69,0,.75-.03,0-.04.01-.1.01-.2,0-.36-.1-.68-.31-.97-.2-.28-.53-.43-.99-.43s-.79.16-1.05.47c-.25.3-.39.69-.42,1.15ZM18,12.44h-2.85c0,.58.19,1.04.54,1.39.36.34.88.51,1.56.51s1.26-.12,1.76-.35c.06-.02.08,0,.08.07v1.06c0,.09-.03.14-.08.17-.59.27-1.31.41-2.14.41-.63,0-1.19-.1-1.66-.3-.47-.2-.84-.47-1.1-.81-.26-.34-.46-.71-.59-1.11-.12-.41-.18-.84-.18-1.31,0-1.03.3-1.9.89-2.6.6-.71,1.43-1.06,2.46-1.06.98,0,1.72.29,2.21.88s.74,1.27.74,2.06c0,.29-.02.56-.06.81,0,.07-.05.1-.11.11-.26.04-.75.06-1.46.06Z"/>
    </g>
  </g>
</svg>