<?xml version="1.0" encoding="UTF-8"?>
<svg id="Capa_2" xmlns="http://www.w3.org/2000/svg" xmlns:xlink="http://www.w3.org/1999/xlink" viewBox="0 0 21.81 21.81">
  <defs>
    <style>
      .cls-1 {
        fill: url(#Degradado_sin_nombre_28);
      }

      .cls-2 {
        fill: #fff;
      }

      .cls-3 {
        fill: #3a75ba;
      }

      .cls-4 {
        fill: url(#Degradado_sin_nombre_27);
      }
    </style>
    <linearGradient id="Degradado_sin_nombre_28" data-name="Degradado sin nombre 28" x1="6.11" y1="2592.96" x2="17.77" y2="2592.38" gradientTransform="translate(0 2603.58) scale(1 -1)" gradientUnits="userSpaceOnUse">
      <stop offset="0" stop-color="#2f62ac"/>
      <stop offset=".4" stop-color="#2f62ac"/>
      <stop offset=".83" stop-color="#346bb3"/>
      <stop offset="1" stop-color="#3b76bb"/>
    </linearGradient>
    <linearGradient id="Degradado_sin_nombre_27" data-name="Degradado sin nombre 27" x1="4.88" y1="2590.11" x2="4.88" y2="2594.41" gradientTransform="translate(0 2603.58) scale(1 -1)" gradientUnits="userSpaceOnUse">
      <stop offset="0" stop-color="#3b76bb"/>
      <stop offset="1" stop-color="#2f62ac"/>
    </linearGradient>
  </defs>
  <g id="Capa_1-2" data-name="Capa_1">
    <g>
      <path class="cls-2" d="M10.91,0C4.88,0,0,4.88,0,10.91s4.88,10.91,10.91,10.91,10.91-4.88,10.91-10.91S16.93,0,10.91,0h0Z"/>
      <g>
        <path id="Logo0" class="cls-3" d="M4.27,12.7c0,.65.14,1.14.33,1.44.24.39.61.56.98.56.48,0,.91-.12,1.75-1.28.67-.93,1.47-2.24,2-3.06l.9-1.39c.63-.97,1.36-2.04,2.19-2.77.68-.59,1.42-.92,2.15-.92,1.24,0,2.42.72,3.33,2.07.99,1.48,1.47,3.34,1.47,5.26,0,1.14-.22,1.98-.61,2.64-.37.64-1.09,1.28-2.3,1.28v-1.83c1.04,0,1.3-.95,1.3-2.05,0-1.56-.36-3.28-1.16-4.52-.57-.88-1.3-1.41-2.11-1.41-.87,0-1.58.66-2.37,1.84-.42.62-.85,1.39-1.34,2.25l-.53.95c-1.07,1.9-1.34,2.33-1.88,3.05-.94,1.25-1.74,1.73-2.8,1.73-1.25,0-2.04-.54-2.54-1.36-.4-.67-.6-1.54-.6-2.54l1.83.07Z"/>
        <path id="Logo1" class="cls-1" d="M3.88,7.48c.84-1.29,2.05-2.2,3.44-2.2.8,0,1.6.24,2.44.92.91.75,1.89,1.97,3.1,3.99l.44.73c1.05,1.75,1.65,2.65,2,3.08.45.55.77.71,1.17.71,1.04,0,1.3-.95,1.3-2.05l1.61-.05c0,1.14-.22,1.98-.61,2.64-.37.64-1.09,1.28-2.3,1.28-.75,0-1.42-.16-2.16-.86-.57-.53-1.23-1.48-1.74-2.34l-1.52-2.54c-.76-1.27-1.46-2.22-1.87-2.65-.44-.46-.99-1.02-1.89-1.02-.72,0-1.34.51-1.85,1.28l-1.56-.93Z"/>
        <path id="Logo2" class="cls-4" d="M7.29,7.12c-.72,0-1.34.51-1.85,1.28-.73,1.1-1.17,2.73-1.17,4.3,0,.65.14,1.14.33,1.44l-1.56,1.03c-.4-.67-.6-1.54-.6-2.54,0-1.81.5-3.7,1.44-5.16.84-1.29,2.05-2.2,3.44-2.2l-.03,1.84Z"/>
      </g>
    </g>
  </g>
</svg>