<?xml version="1.0" encoding="UTF-8"?>
<svg id="Capa_2" xmlns="http://www.w3.org/2000/svg" viewBox="0 0 21.81 21.81">
  <defs>
    <style>
      .cls-1 {
        fill: #fff;
      }

      .cls-2 {
        fill: #343434;
      }

      .cls-3 {
        fill: #f0811d;
      }
    </style>
  </defs>
  <g id="Capa_1-2" data-name="Capa_1">
    <g>
      <circle class="cls-3" cx="10.91" cy="10.91" r="10.91"/>
      <g>
        <path class="cls-1" d="M15.82,15.99v-4.97c0-1.04-.43-1.56-1.29-1.56-.86,0-1.29.52-1.29,1.56v4.97h-2.53v-4.97c0-1.04-.42-1.56-1.27-1.56-.86,0-1.29.52-1.29,1.56v4.97h-2.53v-5.26c0-1.08.38-1.9,1.13-2.46.66-.5,1.56-.75,2.69-.75s1.99.29,2.53.88c.47-.59,1.32-.88,2.55-.88,1.13,0,2.03.25,2.69.75.75.56,1.13,1.38,1.13,2.46v5.26h-2.53Z"/>
        <path class="cls-2" d="M10.55,7.13l2.51-1.84-.03-.11c-4.53.56-6.6.95-10.5,3.21l.04.1h.31c-.03.32-.08,1.09-.01,2.25-.43,1.25-.01,2.11.39,3.03.06-.96.06-2.02-.24-3.07-.06-1.15-.01-1.91.02-2.21l2.59.02c0,.51.02,1.01.08,1.52,2.31.81,4.64,0,5.88-2.01-.34-.38-1.01-.91-1.01-.91Z"/>
      </g>
    </g>
  </g>
</svg>