<?xml version="1.0" encoding="UTF-8"?>
<svg id="Capa_2" data-name="Capa 2" xmlns="http://www.w3.org/2000/svg" viewBox="0 0 243.3 150">
  <g id="Capa_1-2" data-name="Capa 1">
    <path d="M48.55,150c-16.59,0-31.9-8.36-40.94-22.36-4.28-6.62-6.13-13.71-7.48-20.39.11-1.8.03-3.66-.04-5.47-.08-2.05-.16-3.99.02-5.77,2.44-24.03,23.94-42.85,48.96-42.85,1.97,0,3.96.12,5.91.37.32.04,1.53.32,2.49.54,2.63.61,3.95.89,4.67.89.8,0,1.31-.34,1.6-.63l.95-.94-6.79-17.74-1.21-.16c-.72-.1-1.49-.14-2.43-.14-.71,0-1.43.03-2.16.06-.68.03-1.37.05-2.04.05-2.11,0-3.46-.29-4.49-.96-1.74-1.13-2.59-2.92-2.33-4.9.25-1.96,1.55-3.59,3.42-4.33.83.03,1.67.04,2.53.04,3.01,0,6.23-.16,9.35-.32,3.13-.16,6.36-.32,9.4-.32,2.49,0,4.6.11,6.45.33,3.34.4,4.36,3.13,4.23,5.35-.15,2.54-1.77,5.11-5.03,5.11h0c-.28,0-.58-.02-.88-.06l-3.35-.43,4.85,13.24,63.17-.28,15.1-25.56-.44-.97c-2.13-4.73-8.2-9.38-13.52-10.36-1.06-.2-2.04-.23-2.9-.25-1.06-.03-1.97-.06-2.96-.36-3.09-.95-3.86-3.68-3.58-5.74.31-2.28,1.99-4.62,5.04-4.7.17,0,.33,0,.5,0,6.23,0,14.18,2.97,19.33,7.22,7.89,6.52,9.57,13.29,11.7,21.87.69,2.79,1.41,5.67,2.39,8.76.05.17,5.71,16.83,7.64,18.03l.79.49.89-.27c6.34-1.94,12.17-2.89,17.84-2.89,5.3,0,10.49.87,15.43,2.58,17.41,6.02,30.83,22.51,32.66,40.13v11.26c-1.25,5.94-2.76,12.23-6.11,18.16-8.71,15.4-24.5,24.6-42.26,24.6s-34.44-9.65-43-25.82c-10.78-20.37-5.3-45.94,13.02-60.81l1.15-.93-7.58-20.18-3.29-3.95-39.09,66.29c-1.41,1.73-3.44,2.44-6.98,2.44-1.22,0-2.52-.08-3.79-.16-1.31-.08-2.65-.17-3.97-.17-1.19,0-2.23.07-3.16.22l-1.48.24-.22,1.49c-2.5,16.61-13.58,30.98-28.92,37.51-6.09,2.59-12.51,3.91-19.07,3.91ZM168.85,74.1c-11.52,11.21-15.01,27.18-9.12,41.68,5.94,14.61,19.56,23.69,35.57,23.69h0c1.19,0,2.4-.05,3.61-.15,14.48-1.19,28.03-12.35,32.24-26.54,3.51-11.85,1.42-24.14-5.72-33.71-7.2-9.65-18.74-15.41-30.85-15.41-3.88,0-7.79.58-11.62,1.72l-1.27.38-.18,1.31c-.13.97.08,1.77.31,2.42.58,1.69,2.21,4.48,4.29,7.96.54.9,1.02,1.71,1.37,2.32,1.42,2.49,3.3,5.27,5.3,8.21,2.7,3.98,5.49,8.09,6.86,11.2.79,1.8.67,3.71-.33,5.24-.99,1.51-2.68,2.41-4.53,2.41-.42,0-.85-.05-1.28-.13-2.38-.5-6.54-7.37-8.32-10.31-.4-.66-.75-1.24-1.05-1.72-3.68-5.83-7.24-12.13-10.89-19.26l-.23-.45-2.92-2.04-1.22,1.18ZM48.3,63.71c-8.94,0-17.32,3.06-24.25,8.84-8.55,7.13-13.45,17.72-13.45,29.05,0,11.33,4.9,21.92,13.45,29.06,6.9,5.76,15.28,8.81,24.21,8.81,18.22,0,33.91-12.72,37.31-30.24l.47-2.45h-38.95c-.52-.3-1.45-.88-1.67-1.04-1.4-1.05-2.2-2.56-2.2-4.14,0-1.58.8-3.09,2.21-4.14.22-.16,1.15-.74,1.67-1.04h38.96l-.48-2.45c-3.42-17.54-19.09-30.26-37.27-30.26ZM79.58,60.85c.46,3.76,2.88,6.29,5.01,8.51.86.9,1.67,1.74,2.36,2.65,4.78,6.3,7.92,13.54,9.86,22.8l.36,1.73,11.99-.66,21.93-37.33h-51.8l.28,2.3Z"/>
  </g>
</svg>