<?xml version="1.0" encoding="UTF-8"?>
<svg id="Capa_2" xmlns="http://www.w3.org/2000/svg" viewBox="0 0 21.81 21.81">
  <defs>
    <style>
      .cls-1 {
        fill: #312f32;
      }

      .cls-2 {
        fill: #c5c3c5;
      }
    </style>
  </defs>
  <g id="Capa_1-2" data-name="Capa_1">
    <g>
      <path class="cls-2" d="M10.91,21.81C4.89,21.81,0,16.92,0,10.91S4.89,0,10.91,0s10.91,4.89,10.91,10.91-4.89,10.91-10.91,10.91Z"/>
      <circle class="cls-1" cx="10.91" cy="10.91" r="10.4"/>
      <path class="cls-2" d="M5.62,5.44c.32-1.54,1.37-2.93,2.77-3.63-.24.25-.54.44-.77.71-.93,1-1.35,2.45-1.09,3.78.32,2.03,2.23,3.69,4.3,3.66,1.6.07,3.17-.85,3.95-2.24,1.68.06,3.31.92,4.27,2.32.49.73.87,1.58.9,2.46-.31-1.18-1.09-2.22-2.16-2.81-1.03-.58-2.3-.73-3.43-.39-1.42.41-2.59,1.57-2.99,2.99-.34,1.14-.2,2.39.34,3.43-.75,1.3-2.1,2.23-3.57,2.5-1.13.24-2.32.05-3.37-.42.94.27,1.96.32,2.9-.01,1.26-.42,2.29-1.42,2.75-2.67.51-1.35.31-2.96-.54-4.13-.64-.92-1.64-1.56-2.73-1.79-.35-.06-.69-.09-1.04-.12-.55-1.12-.76-2.42-.48-3.63h-.02s0-.01,0-.01Z"/>
    </g>
  </g>
</svg>