<?xml version="1.0" encoding="UTF-8"?>
<svg id="Capa_2" xmlns="http://www.w3.org/2000/svg" viewBox="0 0 21.81 21.81">
  <defs>
    <style>
      .cls-1 {
        fill: #52a0d9;
      }

      .cls-2 {
        fill: #132035;
      }
    </style>
  </defs>
  <g id="Capa_1-2" data-name="Capa_1">
    <g>
      <rect class="cls-2" y="0" width="21.81" height="21.81" rx="3.82" ry="3.82"/>
      <path class="cls-1" d="M6.71,7.47v3.48c.13.02.44.03.92.03.63,0,1.14-.14,1.53-.41.4-.28.6-.74.6-1.37,0-.56-.17-.99-.52-1.29-.34-.3-.84-.45-1.49-.45-.16,0-.32,0-.48.01h-.55ZM4.91,15.46V6.23c0-.07.03-.1.1-.1.72-.02,1.63-.03,2.74-.03,1.3,0,2.26.29,2.86.88.61.59.92,1.31.92,2.17,0,1.07-.38,1.86-1.13,2.38-.76.52-1.71.78-2.85.78h-.84v3.14c0,.08-.04.11-.11.11h-1.57c-.08,0-.11-.03-.11-.1Z"/>
      <path class="cls-1" d="M16.47,10.3c-.53-.33-1.08-.5-1.66-.5-.33,0-.58.06-.74.18-.15.12-.23.27-.23.44s.07.32.2.45c.13.12.41.27.84.44.78.3,1.33.62,1.64.96.32.33.48.76.48,1.29,0,.64-.25,1.16-.74,1.56-.48.39-1.14.58-1.97.58s-1.51-.15-2.04-.45c-.06-.02-.09-.07-.09-.14v-1.32s0-.06.03-.07c.03-.02.05-.02.07,0,.61.45,1.27.68,1.97.68.33,0,.58-.06.75-.17.18-.12.27-.28.27-.47,0-.2-.07-.36-.21-.5-.14-.14-.42-.29-.84-.45-.76-.29-1.29-.6-1.59-.93-.29-.34-.44-.76-.44-1.27,0-.59.22-1.08.67-1.47s1.08-.59,1.9-.59c.77,0,1.36.1,1.77.31.05.03.07.09.07.18v1.17c0,.11-.04.14-.13.08Z"/>
    </g>
  </g>
</svg>