<?xml version="1.0" encoding="UTF-8"?>
<svg id="Capa_2" xmlns="http://www.w3.org/2000/svg" viewBox="0 0 21.81 21.81">
  <defs>
    <style>
      .cls-1 {
        fill: #9495c9;
      }

      .cls-2 {
        fill: #20244c;
      }
    </style>
  </defs>
  <g id="Capa_1-2" data-name="Capa_1">
    <g>
      <rect class="cls-2" width="21.81" height="21.81" rx="3.82" ry="3.82"/>
      <path class="cls-1" d="M7.07,7.53v3.49c.13.02.41.03.83.03.6,0,1.09-.14,1.47-.41.38-.28.57-.75.57-1.39,0-.55-.17-.97-.51-1.28-.33-.31-.81-.47-1.42-.47-.5,0-.81,0-.92.03ZM5.34,15.5V6.34c0-.07.03-.1.09-.1.61-.02,1.46-.03,2.56-.03,1.25,0,2.17.29,2.76.86.6.57.9,1.28.9,2.14,0,1.04-.37,1.82-1.1,2.35-.72.52-1.64.78-2.75.78h-.47c-.17,0-.26-.01-.27-.01v3.16c0,.07-.04.1-.11.1h-1.51c-.07,0-.1-.03-.1-.1Z"/>
      <path class="cls-1" d="M12.56,8.7h1.34c.08,0,.13.04.16.11.08.19.12.46.14.82.55-.71,1.28-1.06,2.18-1.06.07,0,.1.03.1.1v1.43c0,.08-.04.11-.11.1-.83-.05-1.48.17-1.95.64-.09.09-.13.2-.13.34v4.32c0,.07-.04.1-.11.1h-1.49c-.09,0-.13-.04-.13-.11v-4.79c0-.77-.02-1.4-.07-1.9,0-.07.02-.1.09-.1Z"/>
    </g>
  </g>
</svg>