<?xml version="1.0" encoding="UTF-8"?>
<svg id="Capa_2" xmlns="http://www.w3.org/2000/svg" xmlns:xlink="http://www.w3.org/1999/xlink" viewBox="0 0 18.07 17.97">
  <defs>
    <style>
      .cls-1 {
        fill: url(#Degradado_sin_nombre_16);
      }

      .cls-2 {
        fill: url(#Degradado_sin_nombre_17);
      }
    </style>
    <linearGradient id="Degradado_sin_nombre_17" data-name="Degradado sin nombre 17" x1="-267.41" y1="231.94" x2="-266.69" y2="231.22" gradientTransform="translate(3344.26 2900.8) scale(12.5 -12.5)" gradientUnits="userSpaceOnUse">
      <stop offset="0" stop-color="#3a7fba"/>
      <stop offset="1" stop-color="#396a95"/>
    </linearGradient>
    <linearGradient id="Degradado_sin_nombre_16" data-name="Degradado sin nombre 16" x1="-266.97" y1="231.48" x2="-266.2" y2="230.74" gradientTransform="translate(3344.26 2900.8) scale(12.5 -12.5)" gradientUnits="userSpaceOnUse">
      <stop offset="0" stop-color="#ffe054"/>
      <stop offset="1" stop-color="#fcc234"/>
    </linearGradient>
  </defs>
  <g id="Capa_1-2" data-name="Capa_1">
    <g>
      <path class="cls-2" d="M8.97,0c-4.59,0-4.3,1.99-4.3,1.99v2.06h4.38v.62H2.93s-2.93-.33-2.93,4.3,2.56,4.46,2.56,4.46h1.53v-2.15s-.08-2.56,2.52-2.56h4.34s2.44.04,2.44-2.36v-3.96s.37-2.4-4.42-2.4ZM6.55,1.39c.44,0,.79.35.79.79s-.35.79-.79.79c-.43,0-.79-.35-.79-.79,0,0,0,0,0,0,0-.44.35-.79.79-.79Z"/>
      <path class="cls-1" d="M9.1,17.97c4.59,0,4.3-1.99,4.3-1.99v-2.06h-4.38v-.62h6.12s2.93.33,2.93-4.29-2.56-4.46-2.56-4.46h-1.53v2.15s.08,2.56-2.52,2.56h-4.34s-2.44-.04-2.44,2.36v3.96s-.37,2.4,4.42,2.4ZM11.51,16.59c-.43,0-.79-.35-.79-.79,0,0,0,0,0,0,0-.43.35-.79.79-.79s.79.35.79.79-.35.79-.79.79Z"/>
    </g>
  </g>
</svg>