<?xml version="1.0" encoding="UTF-8"?>
<svg id="Capa_2" data-name="Capa 2" xmlns="http://www.w3.org/2000/svg" viewBox="0 0 100 103.84">
  <g id="Capa_1-2" data-name="Capa 1">
    <path d="M46.44,103.84c-2.12-.35-4.37-.6-6.53-1.08-12.94-2.83-24.18-11.15-30.69-22.65-.59,1.63-.71,3.48-1.42,5.07-1.95,4.35-8.45,2.71-7.75-2.48s3.69-11.53,4.51-16.99c.51-1.36,2.16-2.67,3.64-2.65,5.61,1.35,12.05,2.54,17.5,4.42,5.05,1.74,4.19,7.68-.85,8.17l-10.05-2.54c8.14,17.4,27,26.14,45.67,21.14,2.08-.56,4.26-1.93,6.41-1.22,2.84.95,3.68,4.93,1.33,6.92-2.21,1.87-11.64,3.68-14.67,3.88h-7.1ZM48.88,0c-2.17,1.12-3.64,2.92-2.74,5.47.53,1.49,2.85,2.96,3.85,4.26.16.2.39.26.3.61-20.51-.38-39.2,13.58-45.08,33.11-.53,1.75-1.64,5.65-1.58,7.34.13,3.39,4.35,5.25,6.91,2.85,1.51-1.42,1.71-4.96,2.28-7.04,4.93-17.82,22.44-29.85,40.91-27.94-1.89,2.51-5.15,4.67-7,7.09-2.87,3.75,1.84,8.94,6.4,5.18,3-2.48,9.32-8.76,11.75-11.77,1.44-1.78,1.74-3.51.5-5.56-4.56-3.58-8.43-9.15-12.86-12.69-.48-.38-1-.5-1.42-.91h-2.23ZM92.65,76.33c7.78-17.36,4.27-37.84-8.79-51.59-1.04-1.09-4.35-4.28-5.58-4.76-3.2-1.24-6.29,1.39-5.59,4.78.4,1.91,3.94,4.22,5.39,5.76,12.53,13.29,14.07,34.12,3.34,48.98-1.09-2.9-1.46-6.37-2.53-9.23-1.72-4.59-8.56-3.33-7.86,2.19.68,5.35,3.66,11.8,4.66,17.25,1.05,1.99,2.64,2.68,4.88,2.33,5.16-1.93,11.33-2.57,16.42-4.47s3.4-8.17-1.16-8.07c-.88.02-5.14,1.44-5.37,1.23.66-1.49,1.53-2.9,2.2-4.39Z"/>
  </g>
</svg>