<?xml version="1.0" encoding="UTF-8"?>
<svg id="Capa_2" xmlns="http://www.w3.org/2000/svg" viewBox="0 0 21.81 21.81">
  <defs>
    <style>
      .cls-1 {
        fill: #e72f59;
      }

      .cls-1, .cls-2, .cls-3 {
        fill-rule: evenodd;
      }

      .cls-2 {
        fill: #fff;
      }

      .cls-3 {
        fill: #2ab7c5;
      }
    </style>
  </defs>
  <g id="Capa_1-2" data-name="Capa_1">
    <g>
      <path d="M10.91,0C4.88,0,0,4.88,0,10.91s4.88,10.91,10.91,10.91,10.91-4.88,10.91-10.91S16.93,0,10.91,0h0Z"/>
      <g>
        <path class="cls-1" d="M13.73,9.06c.86.61,1.9.97,3.04.97v-2.18c-.21,0-.43-.02-.64-.07v1.71c-1.13,0-2.18-.36-3.04-.97v4.44c0,2.22-1.8,4.02-4.03,4.02-.83,0-1.6-.25-2.24-.68.73.75,1.75,1.21,2.88,1.21,2.22,0,4.03-1.8,4.03-4.02v-4.44h0ZM14.52,6.87c-.44-.48-.72-1.09-.79-1.78v-.28h-.6c.15.87.67,1.61,1.39,2.06h0ZM8.24,14.61c-.24-.32-.38-.71-.38-1.11,0-1.02.82-1.84,1.84-1.84.19,0,.38.03.56.09v-2.23c-.21-.03-.42-.04-.64-.04v1.73c-.18-.06-.37-.09-.56-.09-1.02,0-1.84.82-1.84,1.84,0,.72.41,1.34,1.01,1.64Z"/>
        <path class="cls-2" d="M13.1,8.53c.86.61,1.9.97,3.04.97v-1.71c-.63-.13-1.19-.46-1.61-.92-.72-.45-1.24-1.19-1.39-2.06h-1.59v8.69c0,1.01-.83,1.83-1.84,1.83-.6,0-1.13-.28-1.47-.73-.6-.3-1.01-.93-1.01-1.64,0-1.02.82-1.84,1.84-1.84.19,0,.38.03.56.09v-1.73c-2.18.05-3.94,1.83-3.94,4.02,0,1.1.44,2.09,1.15,2.81.64.43,1.41.68,2.24.68,2.22,0,4.03-1.8,4.03-4.02v-4.44Z"/>
        <path class="cls-3" d="M16.13,7.79v-.46c-.57,0-1.13-.16-1.61-.46.43.47.99.79,1.61.92ZM13.13,4.81c-.01-.08-.03-.17-.03-.25v-.28h-2.19v8.69c0,1.01-.83,1.83-1.84,1.83-.3,0-.58-.07-.83-.2.34.44.87.73,1.47.73,1.01,0,1.84-.82,1.84-1.83V4.81h1.59ZM9.62,9.48v-.49c-.18-.03-.37-.04-.55-.04-2.22,0-4.03,1.8-4.03,4.02,0,1.39.71,2.62,1.78,3.34-.71-.73-1.15-1.72-1.15-2.81,0-2.19,1.76-3.98,3.94-4.02h0Z"/>
      </g>
    </g>
  </g>
</svg>