<?xml version="1.0" encoding="UTF-8"?>
<svg id="Capa_2" data-name="Capa 2" xmlns="http://www.w3.org/2000/svg" viewBox="0 0 225.83 150">
  <g id="Capa_1-2" data-name="Capa 1">
    <path d="M21.11,150c-11.44-1.28-19.63-10.08-20.41-21.92-1.18-18.1-.64-37.29-.12-55.85.48-16.99.97-34.55.17-51.44C1.86,9.74,10.43,1.02,21.19,0l121.2.09c8.58.37,19.23,11.18,19.23,19.6v21.89l6.65-3.97c5.6-3.34,11.09-7.24,16.41-11,5.67-4.02,11.51-8.16,17.31-11.49,2.99-1.72,6.2-2.63,9.27-2.63,7.85,0,13.31,5.47,13.9,13.93,1.14,16.39.62,33.83.12,50.7-.47,15.62-.95,31.68-.15,47.08-1.24,8.29-6.51,13.43-13.78,13.43-3.01,0-6.25-.94-9.35-2.72-5.79-3.33-11.63-7.46-17.27-11.46-5.36-3.8-10.85-7.69-16.44-11.03l-6.65-3.97v21.89c0,8.42-10.7,19.23-19.41,19.6l-121.09.07ZM20.21,12.85c-2.83.86-4.98,3.01-6.37,6.37l-.34.81.15,111.11,5.51,6.08h122.96l.83-.35c2.48-1.05,4.29-3.05,5.55-6.1l.34-.81-.15-111.1-5.51-6.08-122.34-.12-.63.19ZM161.72,56.86l-.15,34.25,1.29,2.8,49.73,32.95V23.15l-50.86,33.71ZM50.28,49.61c-8.75,0-13.07-.3-13.69-.44-3.8-.97-3.89-5.24-3.87-6.09.02-.84.31-5.06,4.05-5.82.53-.1,4.23-.32,11.79-.32,8.3,0,13.03.26,13.72.4,3.87.99,3.87,5.35,3.83,6.22-.04.85-.43,5.13-4.25,5.73-.99.15-5.38.32-11.58.32Z"/>
  </g>
</svg>