<?xml version="1.0" encoding="UTF-8"?>
<svg id="Capa_2" data-name="Capa 2" xmlns="http://www.w3.org/2000/svg" viewBox="0 0 98 65.68">
  <g id="Capa_1-2" data-name="Capa 1">
    <path d="M9.83,65.68c-5.34-.58-9.16-4.65-9.52-10.16-.51-7.75-.27-15.96-.05-23.89.2-7.25.42-14.74.07-21.92C.81,4.54,4.81.46,9.86,0l51.69.04c4.13.18,9.07,5.18,9.07,9.23v7.79l1.51-.9c2.36-1.41,4.68-3.06,6.93-4.65,2.43-1.72,4.94-3.5,7.45-4.94,1.41-.81,2.93-1.24,4.39-1.24,3.78,0,6.51,2.71,6.8,6.75.49,7.02.27,14.48.05,21.69-.2,6.65-.4,13.52-.06,20.08-.57,3.99-3.21,6.56-6.75,6.56-1.44,0-2.97-.44-4.42-1.28-2.51-1.44-5.02-3.22-7.45-4.94-2.25-1.6-4.58-3.25-6.93-4.65l-1.51-.9v7.79c0,4.05-4.94,9.05-9.11,9.23l-51.69.03ZM9.75,7.19c-1.42.43-1.98,1.77-2.16,2.21l-.08.18.06,46.84,1.86,2.05h51.84l.19-.08c.83-.36,1.46-1.05,1.9-2.13l.08-.18-.06-46.84-1.86-2.06-51.62-.05-.14.04ZM70.67,25.58l-.06,13.93.36.79,19.62,13V12.37l-19.93,13.21ZM22.3,22.9c-3.38,0-5.64-.11-6.05-.21-1.76-.45-2.34-2.15-2.31-3.47.03-1.31.69-2.96,2.43-3.32.38-.08,2.28-.15,5.2-.15,3.28,0,5.65.1,6.05.2,1.8.46,2.37,2.2,2.31,3.54-.06,1.33-.77,2.99-2.55,3.27-.55.09-2.63.15-5.07.15Z"/>
  </g>
</svg>