<?xml version="1.0" encoding="UTF-8"?>
<svg id="Capa_2" xmlns="http://www.w3.org/2000/svg" viewBox="0 0 21.81 21.81">
  <defs>
    <style>
      .cls-1 {
        fill: #fff;
      }

      .cls-2 {
        fill: #5cb353;
      }
    </style>
  </defs>
  <g id="Capa_1-2" data-name="Capa_1">
    <g>
      <path class="cls-2" d="M10.91,0C4.88,0,0,4.88,0,10.91s4.88,10.91,10.91,10.91,10.91-4.88,10.91-10.91S16.93,0,10.91,0h0Z"/>
      <path class="cls-1" d="M11.14,17.26s0,0,0,0h0c-1.09,0-2.17-.27-3.12-.79l-3.46.91.93-3.38c-.57-.99-.87-2.11-.87-3.26,0-3.6,2.93-6.53,6.53-6.53,1.75,0,3.39.68,4.62,1.91,1.23,1.23,1.91,2.87,1.91,4.62,0,3.6-2.93,6.53-6.53,6.53h0ZM11.14,5.3c-2.99,0-5.43,2.43-5.43,5.42,0,1.02.29,2.02.83,2.89l.13.21-.55,2,2.05-.54.2.12c.83.49,1.79.76,2.76.76h0c2.99,0,5.42-2.43,5.43-5.42,0-1.45-.56-2.81-1.59-3.84-1.02-1.03-2.39-1.59-3.84-1.59h0ZM14.33,13.06c-.14.38-.79.73-1.1.78-.28.04-.64.06-1.03-.06-.24-.08-.54-.18-.93-.34-1.64-.71-2.7-2.35-2.79-2.46s-.67-.88-.67-1.69.42-1.2.57-1.36c.15-.16.33-.2.44-.2s.22,0,.31,0c.1,0,.23-.04.37.28.14.33.46,1.13.5,1.21.04.08.07.18.01.29-.05.11-.24.34-.41.56-.07.09-.17.17-.07.33.1.16.42.7.91,1.13.62.56,1.15.73,1.31.81.16.08.26.07.35-.04.1-.11.41-.48.52-.64s.22-.14.37-.08c.15.05.95.45,1.11.53.16.08.27.12.31.19.04.07.04.39-.1.78h0Z"/>
    </g>
  </g>
</svg>