<?xml version="1.0" encoding="UTF-8"?>
<svg id="Capa_2" xmlns="http://www.w3.org/2000/svg" viewBox="0 0 21.81 21.81">
  <defs>
    <style>
      .cls-1 {
        fill: #05759b;
      }
    </style>
  </defs>
  <g id="Capa_1-2" data-name="Capa_1">
    <g>
      <path class="cls-1" d="M1.55,10.91c0,3.7,2.15,6.9,5.27,8.42L2.36,7.1c-.54,1.2-.81,2.5-.81,3.81h0ZM17.22,10.43c0-1.16-.42-1.96-.77-2.58-.47-.77-.92-1.42-.92-2.19,0-.86.65-1.66,1.57-1.66.04,0,.08,0,.12,0-1.66-1.52-3.88-2.46-6.32-2.46-3.27,0-6.14,1.68-7.82,4.22.22,0,.43.01.6.01.98,0,2.49-.12,2.49-.12.5-.03.56.71.06.77,0,0-.51.06-1.07.09l3.41,10.13,2.05-6.14-1.46-3.99c-.5-.03-.98-.09-.98-.09-.5-.03-.45-.8.06-.77,0,0,1.55.12,2.46.12.98,0,2.49-.12,2.49-.12.5-.03.56.71.06.77,0,0-.51.06-1.07.09l3.38,10.06.93-3.12c.4-1.29.71-2.22.71-3.02h0Z"/>
      <path class="cls-1" d="M11.07,11.72l-2.81,8.16c.86.25,1.75.38,2.64.38,1.09,0,2.13-.19,3.11-.53-.03-.04-.05-.08-.07-.13l-2.88-7.88ZM19.12,6.42c.04.3.06.62.06.96,0,.95-.18,2.02-.71,3.35l-2.86,8.26c2.78-1.62,4.65-4.64,4.65-8.09,0-1.57-.39-3.11-1.15-4.49h0Z"/>
      <path class="cls-1" d="M10.91,0C4.89,0,0,4.89,0,10.91s4.89,10.91,10.91,10.91,10.91-4.89,10.91-10.91c0-6.01-4.89-10.91-10.91-10.91ZM10.91,21.31C5.17,21.31.5,16.64.5,10.91S5.17.5,10.91.5s10.41,4.67,10.41,10.41-4.67,10.41-10.41,10.41h0Z"/>
    </g>
  </g>
</svg>