<?xml version="1.0" encoding="UTF-8"?>
<svg id="Capa_2" xmlns="http://www.w3.org/2000/svg" viewBox="0 0 21.81 15.37">
  <defs>
    <style>
      .cls-1 {
        fill: #fefefe;
      }

      .cls-2 {
        fill: #e70000;
      }
    </style>
  </defs>
  <g id="Capa_1-2" data-name="Capa_1">
    <g>
      <path class="cls-2" d="M21.36,2.4c-.25-.94-.99-1.69-1.93-1.94-1.7-.46-8.52-.46-8.52-.46,0,0-6.82,0-8.52.46-.94.25-1.68,1-1.93,1.94-.46,1.71-.46,5.28-.46,5.28,0,0,0,3.57.46,5.28.25.94.99,1.69,1.93,1.94,1.7.46,8.52.46,8.52.46,0,0,6.82,0,8.52-.46.94-.25,1.68-1,1.93-1.94.46-1.71.46-5.28.46-5.28,0,0,0-3.57-.46-5.28"/>
      <polygon class="cls-1" points="8.68 10.93 8.68 4.44 14.38 7.68 8.68 10.93"/>
    </g>
  </g>
</svg>